#N canvas 68 52 922 765 10;
#X obj 128 4 adc~;
#X obj 119 140 dac~;
#N canvas 729 23 622 807 weather 0;
#X obj 28 638 outlet~;
#X obj 206 628 outlet~;
#X obj 28 609 *~;
#X obj 206 604 *~;
#X floatatom 104 559 5 0 0 0 - - -;
#X obj 104 536 r weather;
#X obj 111 581 sel 0.01;
#X msg 142 558 0;
#X obj 26 421 phasor~;
#X obj 25 252 receive pd;
#X obj 25 279 route dsp;
#X obj 25 300 sel 1;
#X obj 26 322 samplerate~;
#X floatatom 26 344 5 0 0 0 - - -;
#X obj 26 374 expr $f1 / $f2;
#X floatatom 33 113 5 0 0 0 - - -;
#X floatatom 26 398 5 0 0 0 - - -;
#X obj 33 34 loadbang;
#X obj 26 453 *~;
#X obj 33 89 soundfiler;
#X msg 33 55 read -resize ./audio/MarsLoop.wav marsWeatherArrayLeft
marsWeatherArrayRight;
#X obj 25 198 array define -k marsWeatherArrayLeft;
#X obj 24 224 array define -k marsWeatherArrayRight;
#X obj 25 506 tabread4~ marsWeatherArrayLeft;
#X obj 220 506 tabread4~ marsWeatherArrayRight;
#X connect 2 0 0 0;
#X connect 3 0 1 0;
#X connect 4 0 2 1;
#X connect 4 0 3 1;
#X connect 4 0 6 0;
#X connect 5 0 4 0;
#X connect 6 0 7 0;
#X connect 7 0 4 0;
#X connect 8 0 18 0;
#X connect 9 0 10 0;
#X connect 10 0 11 0;
#X connect 11 0 12 0;
#X connect 12 0 13 0;
#X connect 13 0 14 0;
#X connect 14 0 16 0;
#X connect 15 0 14 1;
#X connect 15 0 18 1;
#X connect 16 0 8 0;
#X connect 17 0 20 0;
#X connect 18 0 23 0;
#X connect 18 0 24 0;
#X connect 19 0 15 0;
#X connect 20 0 19 0;
#X connect 23 0 2 0;
#X connect 24 0 3 0;
#X restore 234 52 pd weather;
#N canvas 483 207 309 305 clean 0;
#X obj 35 24 inlet~;
#X obj 163 25 inlet~;
#X obj 35 142 outlet~;
#X obj 164 138 outlet~;
#X obj 35 99 *~;
#X obj 163 98 *~;
#X obj 98 24 r clean;
#X msg 94 67 0;
#X floatatom 111 104 5 0 0 0 - - -;
#X obj 90 47 sel 0.01;
#X connect 0 0 4 0;
#X connect 1 0 5 0;
#X connect 4 0 2 0;
#X connect 5 0 3 0;
#X connect 6 0 9 0;
#X connect 7 0 8 0;
#X connect 8 0 4 1;
#X connect 8 0 5 1;
#X connect 9 0 7 0;
#X connect 9 1 8 0;
#X restore 11 48 pd clean;
#X obj 73 316 vu 10 160 empty empty -1 -8 2 8 -102387 -1 0 0;
#X obj 88 316 vu 10 160 empty empty -1 -8 0 10 -102387 -1 0 0;
#N canvas 817 315 256 223 vu 0;
#X obj 17 61 inlet~;
#X obj 156 71 inlet~;
#X obj 19 167 s vuL;
#X obj 155 165 s vuR;
#X obj 156 119 - 100;
#X obj 18 89 env~;
#X obj 18 114 - 100;
#X floatatom 19 140 5 0 0 0 - - -;
#X floatatom 155 141 5 0 0 0 - - -;
#X obj 156 94 env~;
#X obj 2 197 outlet~;
#X obj 193 200 outlet~;
#X connect 0 0 5 0;
#X connect 0 0 10 0;
#X connect 1 0 9 0;
#X connect 1 0 11 0;
#X connect 4 0 8 0;
#X connect 5 0 6 0;
#X connect 6 0 7 0;
#X connect 7 0 2 0;
#X connect 8 0 3 0;
#X connect 9 0 4 0;
#X restore 121 96 pd vu;
#X obj 71 209 r vuL;
#X obj 87 231 r vuR;
#X obj 90 118 hip~ 10;
#X obj 152 117 hip~ 10;
#N canvas 682 23 592 673 pitch 0;
#X obj 134 189 inlet~;
#X obj 448 176 inlet~;
#X obj 152 566 outlet~;
#X obj 457 540 outlet~;
#X obj 280 450 r pitch;
#X obj 159 510 *~;
#X obj 459 509 *~;
#X msg 277 500 0;
#X obj 277 478 sel 0.01;
#X floatatom 276 523 5 0 0 0 - - -;
#X obj 179 138 loadbang;
#X obj 132 244 pitchshifter_;
#X obj 438 225 pitchshifter_;
#X text 73 24 n = (ln(fplanet) - 5.564)/0.0578;
#X msg 190 181 transpose -7.1 \, window 100 \, delay 0;
#X obj 314 397 vfreeverb~;
#X msg 243 295 0.25;
#X msg 315 296 1500;
#X msg 357 332 0.5;
#X msg 367 293 0.5;
#X connect 0 0 11 0;
#X connect 1 0 12 0;
#X connect 4 0 8 0;
#X connect 5 0 2 0;
#X connect 6 0 3 0;
#X connect 7 0 9 0;
#X connect 8 0 7 0;
#X connect 8 1 9 0;
#X connect 9 0 5 1;
#X connect 9 0 6 1;
#X connect 10 0 14 0;
#X connect 10 0 16 0;
#X connect 10 0 17 0;
#X connect 10 0 19 0;
#X connect 10 0 18 0;
#X connect 11 0 15 0;
#X connect 12 0 15 1;
#X connect 14 0 12 1;
#X connect 14 0 11 1;
#X connect 15 0 5 0;
#X connect 15 1 6 0;
#X connect 16 0 15 2;
#X connect 17 0 15 3;
#X connect 18 0 15 4;
#X connect 19 0 15 5;
#X restore 175 51 pd pitch;
#N canvas 677 37 677 751 atmosphere 1;
#X obj 171 465 outlet~;
#X obj 252 462 outlet~;
#X obj 171 444 *~;
#X obj 252 442 *~;
#X msg 206 403 0;
#X floatatom 206 425 5 0 0 0 - - -;
#X obj 206 357 r atmosphere;
#X obj 27 93 inlet~;
#X obj 267 92 inlet~;
#X obj 147 407 hip~ 40;
#X obj 281 408 hip~ 40;
#X obj 206 381 sel 0.01;
#X obj 240 9 loadbang;
#X obj 28 210 delwrite~ \$0-delayLeft 22000;
#X obj 281 190 delwrite~ \$0-delayRight 22000;
#X obj 10 248 delback~ \$0-delayLeft;
#X text 334 264 inlet- envelope time (ms);
#X obj 211 330 vfreeverb~;
#X obj 251 404 * 2;
#X obj 327 248 delback~ \$0-delayRight;
#X floatatom 247 217 5 0 0 0 - - -;
#X obj 247 237 - 10;
#X msg 247 195 90;
#X obj 27 115 pitchshifter_;
#X obj 268 113 pitchshifter_;
#X obj 27 139 lop~ 400;
#X obj 269 136 lop~ 400;
#X msg 248 42 transpose -24 \, window 150 \, delay 1;
#X msg 212 275 0.1;
#X msg 236 274 1;
#X msg 154 277 1;
#X msg 184 277 800;
#X obj 145 383 lop~ 400;
#X obj 285 381 lop~ 400;
#X connect 2 0 0 0;
#X connect 3 0 1 0;
#X connect 4 0 5 0;
#X connect 5 0 2 1;
#X connect 5 0 3 1;
#X connect 6 0 11 0;
#X connect 7 0 23 0;
#X connect 8 0 24 0;
#X connect 9 0 2 0;
#X connect 10 0 3 0;
#X connect 11 0 4 0;
#X connect 11 1 18 0;
#X connect 12 0 22 0;
#X connect 12 0 27 0;
#X connect 12 0 30 0;
#X connect 12 0 31 0;
#X connect 12 0 29 0;
#X connect 12 0 28 0;
#X connect 15 0 17 0;
#X connect 17 0 32 0;
#X connect 17 1 33 0;
#X connect 18 0 5 0;
#X connect 19 0 17 1;
#X connect 20 0 15 0;
#X connect 20 0 21 0;
#X connect 21 0 19 0;
#X connect 22 0 20 0;
#X connect 23 0 25 0;
#X connect 24 0 26 0;
#X connect 25 0 13 0;
#X connect 26 0 14 0;
#X connect 27 0 23 1;
#X connect 27 0 24 1;
#X connect 28 0 17 4;
#X connect 29 0 17 5;
#X connect 30 0 17 2;
#X connect 31 0 17 3;
#X connect 32 0 9 0;
#X connect 33 0 10 0;
#X restore 81 50 pd atmosphere;
#X msg 399 50 set \$1;
#X obj 399 71 s \$0-clean-r;
#X obj 317 73 s \$0-atmos-r;
#X obj 405 149 s \$0-pitch-r;
#X obj 320 149 s \$0-weath-r;
#X msg 317 50 set \$1;
#X msg 405 127 set \$1;
#X msg 320 127 set \$1;
#X obj 405 104 param.get 3;
#X obj 320 106 param.get 4;
#X obj 317 26 param.get 2;
#X obj 399 4 param.change;
#X obj 399 26 param.get 1;
#X obj 255 505 hsl 400 25 0.01 0.5 1 0 \$0-weath-s \$0-weath-r empty
1 -10 0 14 -258113 -86277 -128992 0 1;
#X obj 252 370 hsl 400 25 0 1 0 0 \$0-clean-s \$0-clean-r empty 10
12 0 14 -258113 -86277 -33289 0 1;
#X obj 253 414 hsl 400 25 0.01 1 1 0 \$0-atmos-s \$0-atmos-r empty
1 -10 0 14 -258113 -86277 -262144 0 1;
#X obj 253 459 hsl 400 25 0.01 1 1 0 \$0-pitch-s \$0-pitch-r empty
1 -10 0 14 -258113 -86277 -262144 0 1;
#X obj 112 860 s clean;
#X obj 171 860 s atmosphere;
#X obj 252 860 s pitch;
#X obj 308 860 s weather;
#X text 632 375 Dry;
#X text 591 419 Atmosphere;
#X text 621 464 Pitch;
#X text 611 510 Weather;
#X obj 111 884 param.set 1 \$0-clean-s;
#X obj 252 883 param.set 3 \$0-pitch-s;
#X obj 316 906 param.set 4 \$0-weath-s;
#X obj 175 906 param.set 2 \$0-atmos-s;
#X connect 0 0 3 0;
#X connect 0 0 11 0;
#X connect 0 0 12 0;
#X connect 0 1 3 1;
#X connect 0 1 11 1;
#X connect 0 1 12 1;
#X connect 2 0 6 0;
#X connect 2 1 6 1;
#X connect 3 0 6 0;
#X connect 3 1 6 1;
#X connect 6 0 9 0;
#X connect 6 1 10 0;
#X connect 7 0 4 0;
#X connect 8 0 5 0;
#X connect 9 0 1 0;
#X connect 10 0 1 1;
#X connect 11 0 6 0;
#X connect 11 1 6 1;
#X connect 12 0 6 0;
#X connect 12 1 6 1;
#X connect 13 0 14 0;
#X connect 18 0 15 0;
#X connect 19 0 16 0;
#X connect 20 0 17 0;
#X connect 21 0 19 0;
#X connect 22 0 20 0;
#X connect 23 0 18 0;
#X connect 25 0 13 0;
#X connect 26 0 33 0;
#X connect 26 0 40 0;
#X connect 27 0 30 0;
#X connect 27 0 38 0;
#X connect 28 0 31 0;
#X connect 28 0 41 0;
#X connect 29 0 32 0;
#X connect 29 0 39 0;
#X coords 0 -1 1 1 500 500 1 200 200;
