#N canvas 590 23 849 668 10;
#X obj 152 20 adc~;
#X obj 126 297 dac~;
#N canvas 222 23 743 745 weather 0;
#X obj 28 638 outlet~;
#X obj 206 628 outlet~;
#X obj 28 609 *~;
#X obj 206 604 *~;
#X floatatom 104 559 5 0 0 0 - - -;
#X obj 104 536 r weather;
#X obj 111 581 sel 0.01;
#X msg 142 558 0;
#X obj 26 421 phasor~;
#X obj 25 252 receive pd;
#X obj 25 279 route dsp;
#X obj 25 300 sel 1;
#X obj 26 322 samplerate~;
#X floatatom 26 344 5 0 0 0 - - -;
#X obj 26 374 expr $f1 / $f2;
#X floatatom 33 113 5 0 0 0 - - -;
#X floatatom 26 398 5 0 0 0 - - -;
#X obj 33 34 loadbang;
#X obj 26 453 *~;
#X obj 33 89 soundfiler;
#X msg 33 56 read -resize ./audio/NeptuneLoop.wav neptuneWeatherArrayLeft
neptuneWeatherArrayRight;
#X obj 25 198 array define -k neptuneWeatherArrayLeft;
#X obj 24 224 array define -k neptuneWeatherArrayRight;
#X obj 25 506 tabread4~ neptuneWeatherArrayLeft;
#X obj 235 506 tabread4~ neptuneWeatherArrayRight;
#X connect 2 0 0 0;
#X connect 3 0 1 0;
#X connect 4 0 2 1;
#X connect 4 0 3 1;
#X connect 4 0 6 0;
#X connect 5 0 4 0;
#X connect 6 0 7 0;
#X connect 7 0 4 0;
#X connect 8 0 18 0;
#X connect 9 0 10 0;
#X connect 10 0 11 0;
#X connect 11 0 12 0;
#X connect 12 0 13 0;
#X connect 13 0 14 0;
#X connect 14 0 16 0;
#X connect 15 0 14 1;
#X connect 15 0 18 1;
#X connect 16 0 8 0;
#X connect 17 0 20 0;
#X connect 18 0 23 0;
#X connect 18 0 24 0;
#X connect 19 0 15 0;
#X connect 20 0 19 0;
#X connect 23 0 2 0;
#X connect 24 0 3 0;
#X restore 262 96 pd weather;
#N canvas 483 207 309 305 clean 0;
#X obj 35 24 inlet~;
#X obj 163 25 inlet~;
#X obj 35 142 outlet~;
#X obj 164 138 outlet~;
#X obj 35 99 *~;
#X obj 163 98 *~;
#X obj 98 24 r clean;
#X msg 94 67 0;
#X floatatom 111 104 5 0 0 0 - - -;
#X obj 90 47 sel 0.01;
#X connect 0 0 4 0;
#X connect 1 0 5 0;
#X connect 4 0 2 0;
#X connect 5 0 3 0;
#X connect 6 0 9 0;
#X connect 7 0 8 0;
#X connect 8 0 4 1;
#X connect 8 0 5 1;
#X connect 9 0 7 0;
#X connect 9 1 8 0;
#X restore 15 96 pd clean;
#X obj 714 136 vu 10 160 empty empty -1 -8 2 8 -102387 -1 0 0;
#X obj 729 136 vu 10 160 empty empty -1 -8 0 10 -102387 -1 0 0;
#N canvas 817 315 256 223 vu 0;
#X obj 17 61 inlet~;
#X obj 156 71 inlet~;
#X obj 19 167 s vuL;
#X obj 155 165 s vuR;
#X obj 156 119 - 100;
#X obj 18 89 env~;
#X obj 18 114 - 100;
#X floatatom 19 140 5 0 0 0 - - -;
#X floatatom 155 141 5 0 0 0 - - -;
#X obj 156 94 env~;
#X obj 2 197 outlet~;
#X obj 193 200 outlet~;
#X connect 0 0 5 0;
#X connect 0 0 10 0;
#X connect 1 0 9 0;
#X connect 1 0 11 0;
#X connect 4 0 8 0;
#X connect 5 0 6 0;
#X connect 6 0 7 0;
#X connect 7 0 2 0;
#X connect 8 0 3 0;
#X connect 9 0 4 0;
#X restore 125 221 pd vu;
#X obj 712 29 r vuL;
#X obj 728 51 r vuR;
#X obj 94 256 hip~ 10;
#X obj 147 256 hip~ 10;
#N canvas 167 67 592 673 pitch 0;
#X obj 134 189 inlet~;
#X obj 448 176 inlet~;
#X obj 152 566 outlet~;
#X obj 457 540 outlet~;
#X obj 280 450 r pitch;
#X obj 159 510 *~;
#X obj 459 509 *~;
#X msg 277 500 0;
#X obj 277 478 sel 0.01;
#X floatatom 276 523 5 0 0 0 - - -;
#X obj 179 138 loadbang;
#X obj 132 244 pitchshifter_;
#X obj 438 225 pitchshifter_;
#X obj 436 355 vfreeverb~;
#X floatatom 455 290 5 0 0 0 - - -;
#X floatatom 493 290 5 0 0 0 - - -;
#X floatatom 530 290 5 0 0 0 - - -;
#X msg 534 260 0.5;
#X msg 455 259 0.25;
#X msg 496 259 1000;
#X msg 190 181 transpose 9.58 \, window 100 \, delay 0;
#X connect 0 0 11 0;
#X connect 1 0 12 0;
#X connect 4 0 8 0;
#X connect 5 0 2 0;
#X connect 6 0 3 0;
#X connect 7 0 9 0;
#X connect 8 0 7 0;
#X connect 8 1 9 0;
#X connect 9 0 5 1;
#X connect 9 0 6 1;
#X connect 10 0 20 0;
#X connect 10 0 18 0;
#X connect 10 0 19 0;
#X connect 10 0 17 0;
#X connect 11 0 13 0;
#X connect 12 0 13 1;
#X connect 13 0 5 0;
#X connect 13 1 6 0;
#X connect 14 0 13 2;
#X connect 15 0 13 3;
#X connect 16 0 13 5;
#X connect 16 0 13 4;
#X connect 17 0 16 0;
#X connect 18 0 14 0;
#X connect 19 0 15 0;
#X connect 20 0 11 1;
#X connect 20 0 12 1;
#X restore 188 104 pd pitch;
#N canvas 493 556 960 803 atmosphere 1;
#X obj 139 552 outlet~;
#X obj 354 559 outlet~;
#X obj 139 521 *~;
#X msg 237 441 0;
#X floatatom 237 464 5 0 0 0 - - -;
#X obj 237 392 r atmosphere;
#X obj 95 186 inlet~;
#X obj 149 188 inlet~;
#X obj 188 244 loadbang;
#X obj 237 419 sel 0.01;
#X obj 347 522 *~;
#X obj 73 -14 loadbang;
#X obj 46 -120 noise~;
#X obj 46 -66 *~ 8000;
#X obj 46 -37 clip~ 0 1000;
#X obj -6 158 bp~ 1000 7;
#X obj -86 -87 lop~ 1;
#X obj -86 -55 *~;
#X obj -86 -25 *~ 2000;
#X obj -86 4 +~ 0.5;
#X obj -4 114 *~;
#X obj -7 75 *~ 0.45;
#X obj 139 -128 +~;
#X obj 139 -101 *~ 350;
#X obj 139 -73 +~ 1000;
#X obj 46 -8 +~;
#X obj 153 -2 lop~ 0.19;
#X obj 152 33 *~ 160000;
#X obj 152 67 clip~ 0 1000;
#X obj 98 137 vcf~ 600 15;
#X obj 126 107 +~;
#X obj 46 -93 lop~ 0.1;
#X obj 93 -162 osc~ 0.01;
#X obj 174 -164 osc~ 0.011;
#X obj -7 35 vcf~ 600 20;
#X msg 74 9 19;
#X obj 426 20 loadbang;
#X obj 385 -83 noise~;
#X obj 385 -29 *~ 8000;
#X obj 385 0 clip~ 0 1000;
#X obj 260 -60 lop~ 1;
#X obj 253 -18 *~;
#X obj 253 12 *~ 2000;
#X obj 253 41 +~ 0.5;
#X obj 335 151 *~;
#X obj 332 112 *~ 0.45;
#X obj 490 -128 +~;
#X obj 490 -101 *~ 350;
#X obj 490 -73 +~ 1000;
#X obj 385 29 +~;
#X obj 504 -2 lop~ 0.19;
#X obj 503 33 *~ 160000;
#X obj 503 67 clip~ 0 1000;
#X obj 449 137 vcf~ 600 15;
#X obj 477 107 +~;
#X obj 444 -162 osc~ 0.01;
#X obj 332 72 vcf~ 600 20;
#X msg 423 46 19;
#X obj 232 318 *~;
#X obj 526 -164 osc~ 0.021;
#X obj 385 -56 lop~ 0.2;
#X obj 337 195 bp~ 1000 8;
#X obj 78 254 sigmund~;
#X obj 79 278 sel -1500;
#X obj 163 325 bp~, f 7;
#X floatatom 188 303 5 0 0 0 - - -;
#X obj 108 307 * 2;
#X obj 366 430 hip~ 1000;
#X msg 185 275 80;
#X obj 94 331 noise~;
#X obj 183 424 *~;
#X obj 112 382 lop~ 900;
#X obj 246 510 *~;
#X obj 373 380 *~ 300;
#X obj 116 440 *~ 0.06;
#X connect 2 0 0 0;
#X connect 3 0 4 0;
#X connect 4 0 2 1;
#X connect 4 0 10 1;
#X connect 5 0 9 0;
#X connect 6 0 64 0;
#X connect 6 0 72 1;
#X connect 7 0 64 0;
#X connect 7 0 72 1;
#X connect 8 0 68 0;
#X connect 9 0 3 0;
#X connect 9 1 4 0;
#X connect 10 0 1 0;
#X connect 11 0 35 0;
#X connect 12 0 16 0;
#X connect 12 0 26 0;
#X connect 12 0 29 0;
#X connect 12 0 31 0;
#X connect 12 0 34 0;
#X connect 13 0 14 0;
#X connect 14 0 25 0;
#X connect 15 0 58 0;
#X connect 15 0 62 0;
#X connect 15 0 74 0;
#X connect 16 0 17 0;
#X connect 16 0 17 1;
#X connect 17 0 18 0;
#X connect 18 0 19 0;
#X connect 19 0 20 1;
#X connect 20 0 15 0;
#X connect 21 0 20 0;
#X connect 22 0 23 0;
#X connect 23 0 24 0;
#X connect 24 0 25 1;
#X connect 24 0 30 1;
#X connect 25 0 34 1;
#X connect 26 0 27 0;
#X connect 27 0 28 0;
#X connect 28 0 30 0;
#X connect 29 0 21 0;
#X connect 30 0 29 1;
#X connect 31 0 13 0;
#X connect 32 0 22 0;
#X connect 33 0 22 1;
#X connect 34 0 21 0;
#X connect 35 0 34 2;
#X connect 36 0 57 0;
#X connect 37 0 40 0;
#X connect 37 0 50 0;
#X connect 37 0 53 0;
#X connect 37 0 56 0;
#X connect 37 0 60 0;
#X connect 38 0 39 0;
#X connect 39 0 49 0;
#X connect 40 0 41 0;
#X connect 40 0 41 1;
#X connect 41 0 42 0;
#X connect 42 0 43 0;
#X connect 43 0 44 1;
#X connect 44 0 61 0;
#X connect 45 0 44 0;
#X connect 46 0 47 0;
#X connect 47 0 48 0;
#X connect 48 0 49 1;
#X connect 48 0 54 1;
#X connect 49 0 56 1;
#X connect 50 0 51 0;
#X connect 51 0 52 0;
#X connect 52 0 54 0;
#X connect 53 0 45 0;
#X connect 54 0 53 1;
#X connect 55 0 46 0;
#X connect 56 0 45 0;
#X connect 57 0 56 2;
#X connect 58 0 73 0;
#X connect 59 0 46 1;
#X connect 60 0 38 0;
#X connect 61 0 58 1;
#X connect 61 0 72 0;
#X connect 62 0 63 0;
#X connect 63 1 66 0;
#X connect 64 0 70 1;
#X connect 64 0 2 0;
#X connect 64 0 10 0;
#X connect 65 0 64 2;
#X connect 66 0 64 1;
#X connect 67 0 72 0;
#X connect 68 0 65 0;
#X connect 69 0 71 0;
#X connect 70 0 2 0;
#X connect 70 0 10 0;
#X connect 71 0 70 0;
#X connect 72 0 2 0;
#X connect 72 0 10 0;
#X connect 73 0 67 0;
#X connect 74 0 10 0;
#X connect 74 0 2 0;
#X restore 85 98 pd atmosphere;
#X msg 430 56 set \$1;
#X obj 430 77 s \$0-clean-r;
#X obj 348 79 s \$0-atmos-r;
#X obj 436 155 s \$0-pitch-r;
#X obj 351 155 s \$0-weath-r;
#X msg 348 56 set \$1;
#X msg 436 133 set \$1;
#X msg 351 133 set \$1;
#X obj 436 110 param.get 3;
#X obj 351 112 param.get 4;
#X obj 348 32 param.get 2;
#X obj 430 10 param.change;
#X obj 430 32 param.get 1;
#X obj 254 508 hsl 400 25 0.01 1 1 0 \$0-weath-s \$0-weath-r empty
1 -10 0 14 -203904 -4160 -128992 0 1;
#X obj 251 373 hsl 400 25 0 1 0 0 \$0-clean-s \$0-clean-r empty 10
12 0 14 -203904 -4160 -33289 0 1;
#X obj 252 417 hsl 400 25 0.01 6 1 0 \$0-atmos-s \$0-atmos-r empty
1 -10 0 14 -203904 -4160 -262144 900 1;
#X obj 252 462 hsl 400 25 0.01 1 1 0 \$0-pitch-s \$0-pitch-r empty
1 -10 0 14 -203904 -4160 -262144 0 1;
#X obj 113 727 s clean;
#X obj 172 727 s atmosphere;
#X obj 253 727 s pitch;
#X obj 309 727 s weather;
#X text 631 378 Dry;
#X text 590 422 Atmosphere;
#X text 620 467 Pitch;
#X text 610 513 Weather;
#X obj 112 751 param.set 1 \$0-clean-s;
#X obj 253 750 param.set 3 \$0-pitch-s;
#X obj 317 773 param.set 4 \$0-weath-s;
#X obj 176 773 param.set 2 \$0-atmos-s;
#X connect 0 0 3 0;
#X connect 0 0 11 0;
#X connect 0 0 12 0;
#X connect 0 1 3 1;
#X connect 0 1 11 1;
#X connect 0 1 12 1;
#X connect 2 0 6 0;
#X connect 2 1 6 1;
#X connect 3 0 6 0;
#X connect 3 1 6 1;
#X connect 6 0 9 0;
#X connect 6 1 10 0;
#X connect 7 0 4 0;
#X connect 8 0 5 0;
#X connect 9 0 1 0;
#X connect 10 0 1 1;
#X connect 11 0 6 0;
#X connect 11 1 6 1;
#X connect 12 0 6 0;
#X connect 12 1 6 1;
#X connect 13 0 14 0;
#X connect 18 0 15 0;
#X connect 19 0 16 0;
#X connect 20 0 17 0;
#X connect 21 0 19 0;
#X connect 22 0 20 0;
#X connect 23 0 18 0;
#X connect 25 0 13 0;
#X connect 26 0 33 0;
#X connect 26 0 40 0;
#X connect 27 0 30 0;
#X connect 27 0 38 0;
#X connect 28 0 31 0;
#X connect 28 0 41 0;
#X connect 29 0 32 0;
#X connect 29 0 39 0;
#X coords 0 -1 1 1 500 500 1 200 200;
