#N canvas 228 246 561 547 12;
#X obj 149 43 inlet;
#X obj 203 92 osc~ 0.1;
#X floatatom 150 145 5 0 0 0 - - -;
#X obj 150 188 +~;
#X obj 204 160 *~;
#X text 76 17 number to circle around;
#X obj 291 49 inlet;
#X text 289 20 range;
#X obj 152 353 outlet;
#X obj 151 305 snapshot~;
#X obj 165 273 metro 50;
#X obj 165 245 tgl 15 0 empty empty empty 17 7 0 10 -262144 -1 -1 1
1;
#X obj 165 215 loadbang;
#X obj 160 93 f \$1;
#X obj 291 91 f \$2;
#X floatatom 237 129 5 0 0 0 - - -;
#X connect 0 0 2 0;
#X connect 1 0 4 0;
#X connect 2 0 3 0;
#X connect 3 0 9 0;
#X connect 4 0 3 1;
#X connect 6 0 15 0;
#X connect 9 0 8 0;
#X connect 10 0 9 0;
#X connect 11 0 10 0;
#X connect 12 0 11 0;
#X connect 12 0 13 0;
#X connect 12 0 14 0;
#X connect 13 0 2 0;
#X connect 14 0 15 0;
#X connect 15 0 4 1;
