#N canvas 510 33 922 765 10;
#X obj 128 4 adc~;
#X obj 119 140 dac~;
#N canvas 729 23 622 807 weather 0;
#X obj 29 617 outlet~;
#X obj 238 609 outlet~;
#X obj 29 588 *~;
#X obj 238 585 *~;
#X floatatom 105 538 5 0 0 0 - - -;
#X obj 105 515 r weather;
#X obj 112 560 sel 0.01;
#X msg 143 537 0;
#X obj 26 421 phasor~;
#X obj 25 252 receive pd;
#X obj 25 279 route dsp;
#X obj 25 300 sel 1;
#X obj 26 322 samplerate~;
#X floatatom 26 344 5 0 0 0 - - -;
#X obj 26 374 expr $f1 / $f2;
#X floatatom 33 113 5 0 0 0 - - -;
#X floatatom 26 398 5 0 0 0 - - -;
#X obj 33 34 loadbang;
#X obj 26 453 *~;
#X obj 33 89 soundfiler;
#X obj 25 198 array define -k mercuryWeatherArrayLeft;
#X obj 24 224 array define -k mercuryWeatherArrayRight;
#X obj 26 485 tabread4~ mercuryWeatherArrayLeft;
#X obj 236 484 tabread4~ mercuryWeatherArrayRight;
#X msg 33 55 read -resize ./audio/MercuryLoop.wav mercuryWeatherArrayLeft
mercuryWeatherArrayRight;
#X connect 2 0 0 0;
#X connect 3 0 1 0;
#X connect 4 0 2 1;
#X connect 4 0 3 1;
#X connect 4 0 6 0;
#X connect 5 0 4 0;
#X connect 6 0 7 0;
#X connect 7 0 4 0;
#X connect 8 0 18 0;
#X connect 9 0 10 0;
#X connect 10 0 11 0;
#X connect 11 0 12 0;
#X connect 12 0 13 0;
#X connect 13 0 14 0;
#X connect 14 0 16 0;
#X connect 15 0 14 1;
#X connect 15 0 18 1;
#X connect 16 0 8 0;
#X connect 17 0 24 0;
#X connect 18 0 22 0;
#X connect 18 0 23 0;
#X connect 19 0 15 0;
#X connect 22 0 2 0;
#X connect 23 0 3 0;
#X connect 24 0 19 0;
#X restore 214 50 pd weather;
#N canvas 483 207 309 305 clean 0;
#X obj 35 24 inlet~;
#X obj 163 25 inlet~;
#X obj 35 142 outlet~;
#X obj 164 138 outlet~;
#X obj 35 99 *~;
#X obj 163 98 *~;
#X obj 98 24 r clean;
#X msg 94 67 0;
#X floatatom 111 104 5 0 0 0 - - -;
#X obj 90 47 sel 0.01;
#X connect 0 0 4 0;
#X connect 1 0 5 0;
#X connect 4 0 2 0;
#X connect 5 0 3 0;
#X connect 6 0 9 0;
#X connect 7 0 8 0;
#X connect 8 0 4 1;
#X connect 8 0 5 1;
#X connect 9 0 7 0;
#X connect 9 1 8 0;
#X restore 52 48 pd clean;
#X obj 73 316 vu 10 160 empty empty -1 -8 2 8 -102387 -1 0 0;
#X obj 88 316 vu 10 160 empty empty -1 -8 0 10 -102387 -1 0 0;
#N canvas 817 315 256 223 vu 0;
#X obj 17 61 inlet~;
#X obj 156 71 inlet~;
#X obj 19 167 s vuL;
#X obj 155 165 s vuR;
#X obj 156 119 - 100;
#X obj 18 89 env~;
#X obj 18 114 - 100;
#X floatatom 19 140 5 0 0 0 - - -;
#X floatatom 155 141 5 0 0 0 - - -;
#X obj 156 94 env~;
#X obj 2 197 outlet~;
#X obj 193 200 outlet~;
#X connect 0 0 5 0;
#X connect 0 0 10 0;
#X connect 1 0 9 0;
#X connect 1 0 11 0;
#X connect 4 0 8 0;
#X connect 5 0 6 0;
#X connect 6 0 7 0;
#X connect 7 0 2 0;
#X connect 8 0 3 0;
#X connect 9 0 4 0;
#X restore 121 96 pd vu;
#X obj 71 209 r vuL;
#X obj 87 231 r vuR;
#X obj 90 118 hip~ 10;
#X obj 152 117 hip~ 10;
#N canvas 677 37 677 751 atmosphere 1;
#X obj 171 465 outlet~;
#X obj 252 462 outlet~;
#X obj 171 444 *~;
#X obj 252 442 *~;
#X msg 206 403 0;
#X floatatom 206 425 5 0 0 0 - - -;
#X obj 206 357 r atmosphere;
#X obj 143 227 inlet~;
#X obj 284 225 inlet~;
#X obj 147 407 hip~ 40;
#X obj 281 408 hip~ 40;
#X obj 206 381 sel 0.01;
#X obj 300 171 loadbang;
#X obj 143 249 pitchshifter_;
#X obj 284 247 pitchshifter_;
#X msg 300 192 transpose -24.25 \, window 150 \, delay 1;
#X obj 187 304 *~;
#X obj 189 327 *~;
#X obj 330 295 *~;
#X obj 331 318 *~;
#X obj 143 273 bp~ 200;
#X obj 202 272 osc~ 0.1;
#X obj 345 270 osc~ 0.1;
#X obj 217 292 osc~ 0.125;
#X obj 359 294 osc~ 0.125;
#X obj 284 270 bp~ 200;
#X obj 138 374 bp~ 200 50;
#X obj 281 379 bp~ 200 50;
#X obj 237 404 * 1.25;
#X connect 2 0 0 0;
#X connect 3 0 1 0;
#X connect 4 0 5 0;
#X connect 5 0 2 1;
#X connect 5 0 3 1;
#X connect 6 0 11 0;
#X connect 7 0 13 0;
#X connect 7 0 16 0;
#X connect 8 0 14 0;
#X connect 8 0 19 0;
#X connect 9 0 2 0;
#X connect 10 0 3 0;
#X connect 11 0 4 0;
#X connect 11 1 28 0;
#X connect 12 0 15 0;
#X connect 13 0 20 0;
#X connect 14 0 25 0;
#X connect 15 0 13 1;
#X connect 15 0 14 1;
#X connect 16 0 26 0;
#X connect 17 0 9 0;
#X connect 18 0 10 0;
#X connect 19 0 27 0;
#X connect 20 0 17 0;
#X connect 21 0 16 1;
#X connect 22 0 18 1;
#X connect 23 0 17 1;
#X connect 24 0 19 1;
#X connect 25 0 18 0;
#X connect 26 0 9 0;
#X connect 27 0 10 0;
#X connect 28 0 5 0;
#X restore 122 49 pd atmosphere;
#X msg 399 50 set \$1;
#X obj 399 71 s \$0-clean-r;
#X obj 317 73 s \$0-atmos-r;
#X obj 405 149 s \$0-pitch-r;
#X msg 317 50 set \$1;
#X msg 405 127 set \$1;
#X obj 405 104 param.get 3;
#X obj 317 26 param.get 2;
#X obj 399 4 param.change;
#X obj 399 26 param.get 1;
#X obj 252 633 hsl 400 25 0.01 0.5 1 0 \$0-weath-s \$0-weath-r empty
1 -10 0 14 -261682 -4160 -128992 0 1;
#X obj 250 547 hsl 400 25 0 1 0 0 \$0-clean-s \$0-clean-r empty 10
12 0 14 -261682 -4160 -33289 0 1;
#X obj 251 591 hsl 400 25 0.01 1 1 0 \$0-atmos-s \$0-atmos-r empty
1 -10 0 14 -261682 -4160 -262144 0 1;
#X obj 112 860 s clean;
#X obj 171 860 s atmosphere;
#X obj 308 860 s weather;
#X text 630 552 Dry;
#X text 608 638 Weather;
#X obj 111 884 param.set 1 \$0-clean-s;
#X obj 175 906 param.set 2 \$0-atmos-s;
#X obj 316 906 param.set 3 \$0-weath-s;
#X text 571 596 Ear To Ground;
#X connect 0 0 3 0;
#X connect 0 0 11 0;
#X connect 0 1 3 1;
#X connect 0 1 11 1;
#X connect 2 0 6 0;
#X connect 2 1 6 1;
#X connect 3 0 6 0;
#X connect 3 1 6 1;
#X connect 6 0 9 0;
#X connect 6 1 10 0;
#X connect 7 0 4 0;
#X connect 8 0 5 0;
#X connect 9 0 1 0;
#X connect 10 0 1 1;
#X connect 11 0 6 0;
#X connect 11 1 6 1;
#X connect 12 0 13 0;
#X connect 16 0 14 0;
#X connect 17 0 15 0;
#X connect 18 0 17 0;
#X connect 19 0 16 0;
#X connect 21 0 12 0;
#X connect 22 0 27 0;
#X connect 22 0 32 0;
#X connect 23 0 25 0;
#X connect 23 0 30 0;
#X connect 24 0 26 0;
#X connect 24 0 31 0;
#X coords 0 -1 1 1 500 500 1 200 200;
