#N canvas 553 107 495 595 12;
#X obj 59 135 inlet~;
#X obj 242 142 loadbang;
#X obj 61 444 *~;
#X obj 61 481 outlet~;
#X obj 243 231 sel 0;
#X obj 243 204 random 10;
#X floatatom 243 293 5 0 0 0 - - -;
#X obj 213 361 delay;
#X obj 243 176 bng 15 250 50 0 empty empty empty 17 7 0 10 -262144
-1 -1;
#X obj 213 336 bng 15 250 50 0 empty empty empty 17 7 0 10 -262144
-1 -1;
#X floatatom 267 354 5 0 0 0 - - -;
#X obj 245 329 * 23000;
#X obj 243 263 / 15;
#X obj 92 394 line;
#X msg 92 364 1 100;
#X msg 147 363 0 400;
#X obj 147 333 del 150;
#X connect 0 0 2 0;
#X connect 1 0 8 0;
#X connect 2 0 3 0;
#X connect 4 0 8 0;
#X connect 4 1 12 0;
#X connect 5 0 4 0;
#X connect 6 0 11 0;
#X connect 7 0 8 0;
#X connect 8 0 5 0;
#X connect 8 0 14 0;
#X connect 8 0 16 0;
#X connect 9 0 7 0;
#X connect 10 0 7 1;
#X connect 11 0 10 0;
#X connect 12 0 6 0;
#X connect 12 0 9 0;
#X connect 13 0 2 1;
#X connect 14 0 13 0;
#X connect 15 0 13 0;
#X connect 16 0 15 0;
