#N canvas 591 138 849 668 10;
#X obj 152 20 adc~;
#X obj 126 297 dac~;
#N canvas 697 23 743 745 weather 1;
#X obj 28 638 outlet~;
#X obj 206 628 outlet~;
#X obj 28 609 *~;
#X obj 206 604 *~;
#X floatatom 104 559 5 0 0 0 - - -;
#X obj 104 536 r weather;
#X obj 111 581 sel 0.01;
#X msg 142 558 0;
#X obj 26 421 phasor~;
#X obj 25 252 receive pd;
#X obj 25 279 route dsp;
#X obj 25 300 sel 1;
#X obj 26 322 samplerate~;
#X floatatom 26 344 5 0 0 0 - - -;
#X obj 26 374 expr $f1 / $f2;
#X floatatom 33 113 5 0 0 0 - - -;
#X floatatom 26 398 5 0 0 0 - - -;
#X obj 33 34 loadbang;
#X obj 26 453 *~;
#X obj 33 89 soundfiler;
#X obj 25 198 array define -k uranusWeatherArrayLeft;
#X obj 24 224 array define -k uranusWeatherArrayRight;
#X obj 25 506 tabread4~ uranusWeatherArrayLeft;
#X obj 226 506 tabread4~ uranusWeatherArrayRight;
#X msg 33 56 read -resize ./audio/UranusLoop.wav uranusWeatherArrayLeft
uranusWeatherArrayRight;
#X connect 2 0 0 0;
#X connect 3 0 1 0;
#X connect 4 0 2 1;
#X connect 4 0 3 1;
#X connect 4 0 6 0;
#X connect 5 0 4 0;
#X connect 6 0 7 0;
#X connect 7 0 4 0;
#X connect 8 0 18 0;
#X connect 9 0 10 0;
#X connect 10 0 11 0;
#X connect 11 0 12 0;
#X connect 12 0 13 0;
#X connect 13 0 14 0;
#X connect 14 0 16 0;
#X connect 15 0 14 1;
#X connect 15 0 18 1;
#X connect 16 0 8 0;
#X connect 17 0 24 0;
#X connect 18 0 22 0;
#X connect 18 0 23 0;
#X connect 19 0 15 0;
#X connect 22 0 2 0;
#X connect 23 0 3 0;
#X connect 24 0 19 0;
#X restore 262 96 pd weather;
#N canvas 483 207 309 305 clean 0;
#X obj 35 24 inlet~;
#X obj 163 25 inlet~;
#X obj 35 142 outlet~;
#X obj 164 138 outlet~;
#X obj 35 99 *~;
#X obj 163 98 *~;
#X obj 98 24 r clean;
#X msg 94 67 0;
#X floatatom 111 104 5 0 0 0 - - -;
#X obj 90 47 sel 0.01;
#X connect 0 0 4 0;
#X connect 1 0 5 0;
#X connect 4 0 2 0;
#X connect 5 0 3 0;
#X connect 6 0 9 0;
#X connect 7 0 8 0;
#X connect 8 0 4 1;
#X connect 8 0 5 1;
#X connect 9 0 7 0;
#X connect 9 1 8 0;
#X restore 15 96 pd clean;
#X obj 714 136 vu 10 160 empty empty -1 -8 2 8 -102387 -1 0 0;
#X obj 729 136 vu 10 160 empty empty -1 -8 0 10 -102387 -1 0 0;
#N canvas 817 315 256 223 vu 0;
#X obj 17 61 inlet~;
#X obj 156 71 inlet~;
#X obj 19 167 s vuL;
#X obj 155 165 s vuR;
#X obj 156 119 - 100;
#X obj 18 89 env~;
#X obj 18 114 - 100;
#X floatatom 19 140 5 0 0 0 - - -;
#X floatatom 155 141 5 0 0 0 - - -;
#X obj 156 94 env~;
#X obj 2 197 outlet~;
#X obj 193 200 outlet~;
#X connect 0 0 5 0;
#X connect 0 0 10 0;
#X connect 1 0 9 0;
#X connect 1 0 11 0;
#X connect 4 0 8 0;
#X connect 5 0 6 0;
#X connect 6 0 7 0;
#X connect 7 0 2 0;
#X connect 8 0 3 0;
#X connect 9 0 4 0;
#X restore 125 221 pd vu;
#X obj 712 29 r vuL;
#X obj 728 51 r vuR;
#X obj 94 256 hip~ 10;
#X obj 147 256 hip~ 10;
#N canvas 666 23 592 673 pitch 0;
#X obj 134 189 inlet~;
#X obj 448 176 inlet~;
#X obj 152 566 outlet~;
#X obj 457 540 outlet~;
#X obj 280 450 r pitch;
#X obj 159 510 *~;
#X obj 459 509 *~;
#X msg 277 500 0;
#X obj 277 478 sel 0.01;
#X floatatom 276 523 5 0 0 0 - - -;
#X obj 179 138 loadbang;
#X obj 132 244 pitchshifter_;
#X obj 438 225 pitchshifter_;
#X msg 190 181 transpose 10.5 \, window 100 \, delay 0;
#X obj 437 358 vfreeverb~;
#X floatatom 463 315 5 0 0 0 - - -;
#X floatatom 501 313 5 0 0 0 - - -;
#X floatatom 537 313 5 0 0 0 - - -;
#X msg 462 290 0.25;
#X msg 502 288 1000;
#X msg 539 286 0.5;
#X connect 0 0 11 0;
#X connect 1 0 12 0;
#X connect 4 0 8 0;
#X connect 5 0 2 0;
#X connect 6 0 3 0;
#X connect 7 0 9 0;
#X connect 8 0 7 0;
#X connect 8 1 9 0;
#X connect 9 0 5 1;
#X connect 9 0 6 1;
#X connect 10 0 13 0;
#X connect 10 0 18 0;
#X connect 10 0 20 0;
#X connect 10 0 19 0;
#X connect 11 0 14 0;
#X connect 12 0 14 1;
#X connect 13 0 11 1;
#X connect 13 0 12 1;
#X connect 14 0 5 0;
#X connect 14 1 6 0;
#X connect 15 0 14 2;
#X connect 16 0 14 3;
#X connect 17 0 14 4;
#X connect 17 0 14 5;
#X connect 18 0 15 0;
#X connect 19 0 16 0;
#X connect 20 0 17 0;
#X restore 188 104 pd pitch;
#N canvas 207 164 786 803 atmosphere 0;
#X obj 223 522 outlet~;
#X obj 299 520 outlet~;
#X obj 223 490 *~;
#X msg 259 449 0;
#X floatatom 259 472 5 0 0 0 - - -;
#X obj 265 378 r atmosphere;
#X obj 84 -160 inlet~;
#X obj 273 -161 inlet~;
#X obj 231 162 loadbang;
#X obj 299 492 *~;
#X obj 192 274 vfreeverb~, f 13;
#X floatatom 196 236 5 0 0 0 - - -;
#X floatatom 231 235 5 0 0 0 - - -;
#X floatatom 266 236 5 0 0 0 - - -;
#X floatatom 303 236 5 0 0 0 - - -;
#X obj 322 351 stereochorus;
#X obj 194 354 stereochorus;
#X obj 191 99 fx.streamstretch~;
#N canvas 168 152 1040 532 commands 0;
#X obj 48 510 outlet;
#X obj 101 80 tgl 15 0 empty empty empty 17 7 0 10 -262144 -1 -1 1
1;
#X obj 294 290 tgl 15 0 empty empty empty 17 7 0 10 -262144 -1 -1 0
1;
#X msg 262 267 manual-trig bang;
#X text 273 89 Turn on buffering first or you won't hear anything;
#X msg 294 310 auto-trig-switch \$1;
#X text 479 350 Set the probability of auto-triggering a new stream
on every tick that goes by (by default \, once per 500ms).;
#X text 509 405 Make the rate of ticks faster for more density;
#X text 455 300 Or \, turn auto-trigger on to keep generating new streams
continuously;
#X text 391 262 Manually trigger a new stream (polyphonic up to 20
voices);
#X text 371 147 Transposition range in 100ths of a semitone (cents)
;
#X text 371 175 Playback speed from 0-100%;
#X msg 353 454 window-size 4096;
#X text 509 455 Make the FFT analysis window bigger (overlap of 4 is
hard-coded);
#X msg 101 100 buffer-rec-switch \$1;
#X msg 49 33 buffer-rec-switch 0 \, trig-play-switch 0 \, window-size
2048 \, trig-prob 70 \, speed-range 50 90 \, transpo-range 0 0 \;;
#X text 438 39 Internal defaults;
#X obj 161 66 loadbang;
#X msg 323 354 auto-trig-prob 25;
#X obj 240 112 delay 10;
#X obj 317 132 delay 10;
#X msg 343 404 auto-trig-rate 10;
#X obj 366 213 inlet;
#X msg 207 176 speed-range 1 5;
#X msg 195 152 transpo-range 1200 2200;
#X connect 1 0 14 0;
#X connect 2 0 5 0;
#X connect 3 0 0 0;
#X connect 5 0 0 0;
#X connect 12 0 0 0;
#X connect 14 0 0 0;
#X connect 15 0 0 0;
#X connect 17 0 1 0;
#X connect 17 0 19 0;
#X connect 18 0 0 0;
#X connect 19 0 24 0;
#X connect 19 0 20 0;
#X connect 20 0 23 0;
#X connect 21 0 0 0;
#X connect 22 0 3 0;
#X connect 23 0 0 0;
#X connect 24 0 0 0;
#X restore 330 110 pd commands;
#X msg 195 210 0.2;
#X floatatom 116 284 5 0 0 0 - - -;
#X obj 116 316 sig~;
#X obj 72 258 line, f 9;
#X obj 23 196 bng 15 250 50 0 empty empty empty 17 7 0 10 -262144 -1
-1;
#X obj 12 5 random 3;
#X obj 15 36 route 0 1 2 3;
#X floatatom 457 299 5 0 0 0 - - -;
#X obj 457 331 sig~;
#X obj 413 273 line, f 9;
#X obj 418 204 bng 15 250 50 0 empty empty empty 17 7 0 10 -262144
-1 -1;
#X obj 407 13 random 3;
#X obj 410 44 route 0 1 2 3;
#X obj 139 228 *~ 0.2;
#X obj 334 328 vcf~ 0.3;
#X obj 220 318 vcf~ 0.3;
#X obj 265 404 sel 0.01;
#X obj 23 223 delay 15000;
#X obj 418 231 delay 18000;
#X obj 154 287 *~ 0.5;
#X msg 226 209 1000;
#X obj 213 64 autoAttackDecay;
#X floatatom 334 271 5 0 0 0 - - -;
#X obj 274 -24 bp~ 15314 10;
#X obj 191 -24 bp~ 12200 10;
#X obj 114 -24 bp~ 8466 10;
#X obj 32 -23 bp~ 6312 10;
#X obj 287 437 * 0.1;
#X obj 315 -69 oscNum 814 400;
#X obj 204 -64 oscNum 200 300;
#X obj 95 -63 oscNum 866 112;
#X obj -11 -60 oscNum 1312 100;
#X msg 330 247 0.2;
#X msg 48 82 800 10000;
#X msg 443 90 800 10000;
#X msg 61 117 300 10000;
#X msg 456 125 300 10000;
#X msg 481 196 1200 10000;
#X msg 86 188 1200 10000;
#X msg 71 156 600 10000;
#X msg 466 164 600 10000;
#X obj 44 385 *~ 0.2;
#X obj 324 0 sigmund~;
#X obj 322 23 sel -1500;
#X floatatom 331 48 5 0 0 0 - - -;
#X obj 351 91 bng 15 250 50 0 empty empty empty 17 7 0 10 -262144 -1
-1;
#X obj 134 131 delwrite~ stretchback 5000;
#X obj 206 17 *~ 0.05;
#X obj 113 36 delread~ stretchback 1000;
#X msg 300 210 0.5;
#X obj 331 70 moses 80;
#X obj 187 400 lop~ 2000;
#X obj 359 389 lop~ 2000;
#X obj 130 59 *~ 0.15;
#X msg 266 210 0.2;
#X connect 2 0 0 0;
#X connect 3 0 4 0;
#X connect 4 0 2 1;
#X connect 4 0 9 1;
#X connect 5 0 35 0;
#X connect 6 0 17 0;
#X connect 6 0 42 0;
#X connect 6 0 43 0;
#X connect 6 0 44 0;
#X connect 6 0 45 0;
#X connect 6 0 61 0;
#X connect 7 0 17 0;
#X connect 7 0 42 0;
#X connect 7 0 43 0;
#X connect 7 0 44 0;
#X connect 7 0 45 0;
#X connect 7 0 61 0;
#X connect 8 0 19 0;
#X connect 8 0 39 0;
#X connect 8 0 68 0;
#X connect 8 0 73 0;
#X connect 8 0 24 0;
#X connect 8 0 30 0;
#X connect 8 0 51 0;
#X connect 9 0 1 0;
#X connect 10 0 16 0;
#X connect 10 1 34 0;
#X connect 10 1 15 0;
#X connect 11 0 10 2;
#X connect 12 0 10 3;
#X connect 13 0 10 4;
#X connect 14 0 10 5;
#X connect 15 0 71 0;
#X connect 15 1 70 0;
#X connect 16 0 70 0;
#X connect 16 1 71 0;
#X connect 17 0 32 0;
#X connect 17 0 34 0;
#X connect 17 0 10 0;
#X connect 17 0 33 0;
#X connect 17 0 38 0;
#X connect 17 0 65 0;
#X connect 18 0 17 1;
#X connect 19 0 11 0;
#X connect 20 0 21 0;
#X connect 21 0 34 1;
#X connect 22 0 20 0;
#X connect 23 0 36 0;
#X connect 24 0 25 0;
#X connect 25 0 52 0;
#X connect 25 1 54 0;
#X connect 25 2 58 0;
#X connect 25 3 57 0;
#X connect 26 0 27 0;
#X connect 27 0 33 1;
#X connect 28 0 26 0;
#X connect 29 0 37 0;
#X connect 30 0 31 0;
#X connect 31 0 53 0;
#X connect 31 1 55 0;
#X connect 31 2 59 0;
#X connect 31 3 56 0;
#X connect 32 0 10 0;
#X connect 33 0 15 0;
#X connect 33 0 16 0;
#X connect 34 0 16 0;
#X connect 34 0 15 0;
#X connect 35 0 3 0;
#X connect 35 1 46 0;
#X connect 36 0 24 0;
#X connect 37 0 30 0;
#X connect 39 0 12 0;
#X connect 40 0 17 0;
#X connect 41 0 33 2;
#X connect 41 0 34 2;
#X connect 42 0 66 0;
#X connect 43 0 66 0;
#X connect 44 0 66 0;
#X connect 45 0 66 0;
#X connect 46 0 4 0;
#X connect 47 0 42 1;
#X connect 48 0 43 1;
#X connect 49 0 44 1;
#X connect 50 0 45 1;
#X connect 51 0 41 0;
#X connect 52 0 22 0;
#X connect 52 0 23 0;
#X connect 53 0 28 0;
#X connect 53 0 29 0;
#X connect 54 0 22 0;
#X connect 54 0 23 0;
#X connect 55 0 28 0;
#X connect 55 0 29 0;
#X connect 56 0 28 0;
#X connect 56 0 29 0;
#X connect 57 0 22 0;
#X connect 57 0 23 0;
#X connect 58 0 22 0;
#X connect 58 0 23 0;
#X connect 59 0 28 0;
#X connect 59 0 29 0;
#X connect 60 0 16 0;
#X connect 60 0 15 0;
#X connect 61 0 62 0;
#X connect 62 1 63 0;
#X connect 63 0 69 0;
#X connect 64 0 18 0;
#X connect 66 0 40 0;
#X connect 66 0 60 0;
#X connect 67 0 72 0;
#X connect 68 0 14 0;
#X connect 69 1 64 0;
#X connect 70 0 2 0;
#X connect 71 0 9 0;
#X connect 72 0 17 0;
#X connect 73 0 13 0;
#X restore 83 98 pd atmosphere;
#X msg 430 56 set \$1;
#X obj 430 77 s \$0-clean-r;
#X obj 348 79 s \$0-atmos-r;
#X obj 436 155 s \$0-pitch-r;
#X obj 351 155 s \$0-weath-r;
#X msg 348 56 set \$1;
#X msg 436 133 set \$1;
#X msg 351 133 set \$1;
#X obj 436 110 param.get 3;
#X obj 351 112 param.get 4;
#X obj 348 32 param.get 2;
#X obj 430 10 param.change;
#X obj 430 32 param.get 1;
#X obj 254 508 hsl 400 25 0.01 0.5 1 0 \$0-weath-s \$0-weath-r empty
1 -10 0 14 -204800 -45076 -128992 0 1;
#X obj 251 373 hsl 400 25 0 1 0 0 \$0-clean-s \$0-clean-r empty 10
12 0 14 -204800 -45076 -33289 0 1;
#X obj 252 417 hsl 400 25 0.01 1 1 0 \$0-atmos-s \$0-atmos-r empty
1 -10 0 14 -204800 -45076 -262144 0 1;
#X obj 252 462 hsl 400 25 0.01 1 1 0 \$0-pitch-s \$0-pitch-r empty
1 -10 0 14 -204800 -45076 -262144 0 1;
#X obj 113 727 s clean;
#X obj 172 727 s atmosphere;
#X obj 253 727 s pitch;
#X obj 309 727 s weather;
#X text 631 378 Dry;
#X text 590 422 Atmosphere;
#X text 620 467 Pitch;
#X text 610 513 Weather;
#X obj 112 751 param.set 1 \$0-clean-s;
#X obj 253 750 param.set 3 \$0-pitch-s;
#X obj 317 773 param.set 4 \$0-weath-s;
#X obj 176 773 param.set 2 \$0-atmos-s;
#X connect 0 0 3 0;
#X connect 0 0 11 0;
#X connect 0 0 12 0;
#X connect 0 1 3 1;
#X connect 0 1 11 1;
#X connect 0 1 12 1;
#X connect 2 0 6 0;
#X connect 2 1 6 1;
#X connect 3 0 6 0;
#X connect 3 1 6 1;
#X connect 6 0 9 0;
#X connect 6 1 10 0;
#X connect 7 0 4 0;
#X connect 8 0 5 0;
#X connect 9 0 1 0;
#X connect 10 0 1 1;
#X connect 11 0 6 0;
#X connect 11 1 6 1;
#X connect 12 0 6 0;
#X connect 12 1 6 1;
#X connect 13 0 14 0;
#X connect 18 0 15 0;
#X connect 19 0 16 0;
#X connect 20 0 17 0;
#X connect 21 0 19 0;
#X connect 22 0 20 0;
#X connect 23 0 18 0;
#X connect 25 0 13 0;
#X connect 26 0 33 0;
#X connect 26 0 40 0;
#X connect 27 0 30 0;
#X connect 27 0 38 0;
#X connect 28 0 31 0;
#X connect 28 0 41 0;
#X connect 29 0 32 0;
#X connect 29 0 39 0;
#X coords 0 -1 1 1 500 500 1 200 200;
