#N canvas 172 124 450 518 12;
#X obj 68 22 inlet~;
#X obj 370 124 delay;
#X obj 275 23 inlet;
#X obj 338 24 inlet;
#X obj 70 403 outlet~;
#X obj 70 368 *~;
#X obj 278 306 line;
#X floatatom 275 70 5 0 0 0 - - -;
#X floatatom 338 73 5 0 0 0 - - -;
#X msg 276 201 1 \$1;
#X msg 338 242 0 \$1;
#X obj 138 18 loadbang;
#X obj 97 288 bng 15 250 50 0 empty empty empty 17 7 0 10 -262144 -1
-1;
#X floatatom 97 100 5 0 0 0 - - -;
#X obj 97 220 change;
#X obj 97 125 moses;
#X floatatom 140 103 5 0 0 0 - - -;
#X obj 129 152 moses;
#X floatatom 193 132 5 0 0 0 - - -;
#X msg 97 177 0;
#X msg 151 177 1;
#X obj 97 253 select 1;
#X obj 97 68 env~;
#X obj 275 101 + 1;
#X msg 195 70 100;
#X msg 140 70 80;
#X connect 0 0 5 0;
#X connect 0 0 22 0;
#X connect 1 0 8 0;
#X connect 2 0 7 0;
#X connect 3 0 8 0;
#X connect 5 0 4 0;
#X connect 6 0 5 1;
#X connect 7 0 23 0;
#X connect 8 0 10 0;
#X connect 9 0 6 0;
#X connect 10 0 6 0;
#X connect 11 0 25 0;
#X connect 11 0 24 0;
#X connect 12 0 7 0;
#X connect 12 0 1 0;
#X connect 14 0 21 0;
#X connect 15 0 19 0;
#X connect 15 1 17 0;
#X connect 16 0 15 1;
#X connect 17 1 20 0;
#X connect 18 0 17 1;
#X connect 19 0 14 0;
#X connect 20 0 14 0;
#X connect 21 0 12 0;
#X connect 22 0 13 0;
#X connect 22 0 15 0;
#X connect 23 0 9 0;
#X connect 23 0 1 1;
#X connect 24 0 18 0;
#X connect 25 0 16 0;
