#N canvas 268 122 965 674 12;
#X obj 173 21 inlet~;
#X obj 97 70 r~ \$0-fb;
#X obj 174 70 *~ 0.3;
#X obj 195 116 s~ \$0-d;
#X obj 156 114 +~;
#X obj 163 153 delwrite~ \$0-a1 100;
#X obj 157 178 delwrite~ \$0-a2 100;
#X obj 353 23 inlet fb;
#X obj 449 25 inlet rate;
#X obj 550 27 inlet depth;
#X obj 353 50 clip -1 1;
#X obj 353 80 * 0.4;
#X obj 449 55 * 5;
#X obj 449 80 + 1;
#X obj 449 110 osc~;
#X obj 449 136 *~;
#X obj 449 163 +~;
#X obj 550 53 * 2;
#X obj 363 111 osc~;
#X obj 363 135 *~;
#X obj 363 164 +~;
#X obj 363 192 vd~ \$0-a1;
#X obj 449 191 vd~ \$0-a2;
#X obj 449 249 *~ 1;
#X obj 358 289 *~;
#X obj 358 316 s~ \$0-fb;
#X obj 449 316 outlet~ l;
#X obj 527 316 outlet~ r;
#X obj 527 273 r~ \$0-d;
#X connect 0 0 2 0;
#X connect 1 0 4 0;
#X connect 2 0 3 0;
#X connect 2 0 4 1;
#X connect 4 0 6 0;
#X connect 4 0 5 0;
#X connect 7 0 10 0;
#X connect 8 0 12 0;
#X connect 9 0 17 0;
#X connect 10 0 11 0;
#X connect 11 0 24 0;
#X connect 12 0 13 0;
#X connect 12 0 18 0;
#X connect 13 0 14 0;
#X connect 14 0 15 0;
#X connect 15 0 16 0;
#X connect 16 0 22 0;
#X connect 17 0 15 1;
#X connect 17 0 19 1;
#X connect 17 0 16 1;
#X connect 17 0 20 1;
#X connect 18 0 19 0;
#X connect 19 0 20 0;
#X connect 20 0 21 0;
#X connect 21 0 23 0;
#X connect 22 0 23 0;
#X connect 23 0 24 1;
#X connect 23 0 26 0;
#X connect 24 0 25 0;
#X connect 28 0 27 0;
