#N canvas 469 23 866 655 10;
#X obj 152 20 adc~;
#X obj 107 292 dac~;
#N canvas 558 99 848 617 weather 1;
#X obj 28 638 outlet~;
#X obj 206 628 outlet~;
#X obj 28 609 *~;
#X obj 206 604 *~;
#X floatatom 104 559 5 0 0 0 - - -;
#X obj 104 536 r weather;
#X obj 111 581 sel 0.01;
#X msg 144 560 0, f 2;
#X obj 26 421 phasor~;
#X obj 25 252 receive pd;
#X obj 25 279 route dsp;
#X obj 25 300 sel 1;
#X obj 26 322 samplerate~;
#X floatatom 26 344 5 0 0 0 - - -;
#X obj 26 374 expr $f1 / $f2;
#X floatatom 33 113 5 0 0 0 - - -;
#X floatatom 26 398 5 0 0 0 - - -;
#X obj 33 34 loadbang;
#X obj 26 453 *~;
#X obj 33 89 soundfiler;
#X msg 33 55 read -resize ./audio/SaturnLoop.wav saturnWeatherArrayLeft
saturnWeatherArrayRight;
#X obj 25 198 array define -k saturnWeatherArrayLeft;
#X obj 24 224 array define -k saturnWeatherArrayRight;
#X obj 25 506 tabread4~ saturnWeatherArrayLeft;
#X obj 226 506 tabread4~ saturnWeatherArrayRight;
#X connect 2 0 0 0;
#X connect 3 0 1 0;
#X connect 4 0 2 1;
#X connect 4 0 3 1;
#X connect 4 0 6 0;
#X connect 5 0 4 0;
#X connect 6 0 7 0;
#X connect 7 0 4 0;
#X connect 8 0 18 0;
#X connect 9 0 10 0;
#X connect 10 0 11 0;
#X connect 11 0 12 0;
#X connect 12 0 13 0;
#X connect 13 0 14 0;
#X connect 14 0 16 0;
#X connect 15 0 14 1;
#X connect 15 0 18 1;
#X connect 16 0 8 0;
#X connect 17 0 20 0;
#X connect 18 0 23 0;
#X connect 18 0 24 0;
#X connect 19 0 15 0;
#X connect 20 0 19 0;
#X connect 23 0 2 0;
#X connect 24 0 3 0;
#X restore 253 105 pd weather;
#N canvas 483 207 309 305 clean 0;
#X obj 35 24 inlet~;
#X obj 163 25 inlet~;
#X obj 35 142 outlet~;
#X obj 164 138 outlet~;
#X obj 35 99 *~;
#X obj 163 98 *~;
#X obj 98 24 r clean;
#X msg 94 67 0;
#X floatatom 111 104 5 0 0 0 - - -;
#X obj 90 47 sel 0.01;
#X connect 0 0 4 0;
#X connect 1 0 5 0;
#X connect 4 0 2 0;
#X connect 5 0 3 0;
#X connect 6 0 9 0;
#X connect 7 0 8 0;
#X connect 8 0 4 1;
#X connect 8 0 5 1;
#X connect 9 0 7 0;
#X connect 9 1 8 0;
#X restore 15 96 pd clean;
#X obj 776 115 vu 10 160 empty empty -1 -8 2 8 -102387 -1 0 0;
#X obj 791 115 vu 10 160 empty empty -1 -8 0 10 -102387 -1 0 0;
#N canvas 817 315 256 223 vu 0;
#X obj 17 61 inlet~;
#X obj 156 71 inlet~;
#X obj 19 167 s vuL;
#X obj 155 165 s vuR;
#X obj 156 119 - 100;
#X obj 18 89 env~;
#X obj 18 114 - 100;
#X floatatom 19 140 5 0 0 0 - - -;
#X floatatom 155 141 5 0 0 0 - - -;
#X obj 156 94 env~;
#X obj 2 197 outlet~;
#X obj 193 200 outlet~;
#X connect 0 0 5 0;
#X connect 0 0 10 0;
#X connect 1 0 9 0;
#X connect 1 0 11 0;
#X connect 4 0 8 0;
#X connect 5 0 6 0;
#X connect 6 0 7 0;
#X connect 7 0 2 0;
#X connect 8 0 3 0;
#X connect 9 0 4 0;
#X restore 125 221 pd vu;
#X obj 774 8 r vuL;
#X obj 790 30 r vuR;
#X obj 75 251 hip~ 10;
#X obj 137 250 hip~ 10;
#N canvas 494 23 592 673 pitch 0;
#X obj 134 189 inlet~;
#X obj 448 176 inlet~;
#X obj 152 566 outlet~;
#X obj 457 540 outlet~;
#X obj 280 450 r pitch;
#X obj 159 510 *~;
#X obj 459 509 *~;
#X msg 277 500 0;
#X obj 277 478 sel 0.01;
#X floatatom 276 523 5 0 0 0 - - -;
#X obj 179 138 loadbang;
#X obj 132 244 pitchshifter_;
#X obj 438 225 pitchshifter_;
#X msg 220 166 transpose 13.8 \, window 100 \, delay 0;
#X msg 199 343 0.25;
#X floatatom 200 368 5 0 0 0 - - -;
#X floatatom 242 368 5 0 0 0 - - -;
#X floatatom 280 368 5 0 0 0 - - -;
#X msg 278 343 0.5;
#X obj 209 407 vfreeverb~;
#X msg 241 344 1500;
#X connect 0 0 11 0;
#X connect 1 0 12 0;
#X connect 4 0 8 0;
#X connect 5 0 2 0;
#X connect 6 0 3 0;
#X connect 7 0 9 0;
#X connect 8 0 7 0;
#X connect 8 1 9 0;
#X connect 9 0 5 1;
#X connect 9 0 6 1;
#X connect 10 0 14 0;
#X connect 10 0 13 0;
#X connect 10 0 20 0;
#X connect 10 0 18 0;
#X connect 11 0 19 0;
#X connect 12 0 19 1;
#X connect 13 0 11 1;
#X connect 13 0 12 1;
#X connect 14 0 15 0;
#X connect 15 0 19 2;
#X connect 16 0 19 3;
#X connect 17 0 19 4;
#X connect 17 0 19 5;
#X connect 18 0 17 0;
#X connect 19 0 5 0;
#X connect 19 1 6 0;
#X connect 20 0 16 0;
#X restore 188 104 pd pitch;
#N canvas 0 24 1440 802 atmosphere 0;
#X obj 221 520 outlet~;
#X obj 297 518 outlet~;
#X obj 221 488 *~;
#X msg 241 402 0;
#X floatatom 241 425 5 0 0 0 - - -;
#X obj 241 327 r atmosphere;
#X obj 84 -160 inlet~;
#X obj 273 -161 inlet~;
#X obj 406 75 loadbang;
#X obj 297 490 *~;
#X obj 170 -126 noise~;
#X obj 238 280 vfreeverb~, f 13;
#X msg 343 166 8000;
#X msg 383 167 0.3;
#X msg 417 167 1;
#X floatatom 313 193 5 0 0 0 - - -;
#X floatatom 348 192 5 0 0 0 - - -;
#X floatatom 383 193 5 0 0 0 - - -;
#X floatatom 420 193 5 0 0 0 - - -;
#X obj 40 123 dkvfbcomb~ 0.3 500 100;
#X obj 75 56 dkvfbcomb~ 0.3 500 122;
#X obj 75 84 *~ 0.5;
#X obj 207 63 dkvfbcomb~ 0.3 500 129;
#X obj 41 145 *~ 0.5;
#X obj 207 87 *~ 0.5;
#X obj 354 42 dkvfbcomb~ 0.4 500 145;
#X obj 354 65 *~ 0.5;
#X obj 346 327 stereochorus;
#X obj 137 327 stereochorus;
#X obj 33 -23 bp~ 6312 80;
#X obj 113 -24 bp~ 8466 80;
#X obj 190 -24 bp~ 12200 80;
#X obj 274 -24 bp~ 15314 80;
#X msg 312 166 7;
#X obj -11 -60 oscNum 6312 100;
#X obj 95 -63 oscNum 8466 112;
#X obj 170 -101 *~ 0.1;
#X obj 204 -64 oscNum 12200 300;
#X obj 315 -69 oscNum 15314 400;
#X obj 237 219 autoAttackDecay;
#X obj 281 21 bp~ 15314 20;
#X obj 195 21 bp~ 12200 20;
#X obj 118 21 bp~ 8466 20;
#X obj 38 22 bp~ 6312 20;
#X obj 241 380 sel 0.01;
#X connect 2 0 0 0;
#X connect 3 0 4 0;
#X connect 4 0 2 1;
#X connect 4 0 9 1;
#X connect 5 0 44 0;
#X connect 6 0 29 0;
#X connect 6 0 30 0;
#X connect 6 0 31 0;
#X connect 6 0 32 0;
#X connect 7 0 29 0;
#X connect 7 0 30 0;
#X connect 7 0 31 0;
#X connect 7 0 32 0;
#X connect 8 0 33 0;
#X connect 8 0 12 0;
#X connect 8 0 14 0;
#X connect 8 0 13 0;
#X connect 9 0 1 0;
#X connect 10 0 36 0;
#X connect 11 0 28 0;
#X connect 11 1 27 0;
#X connect 12 0 16 0;
#X connect 13 0 17 0;
#X connect 14 0 18 0;
#X connect 15 0 11 2;
#X connect 16 0 11 3;
#X connect 17 0 11 4;
#X connect 18 0 11 5;
#X connect 19 0 23 0;
#X connect 20 0 21 0;
#X connect 21 0 39 0;
#X connect 22 0 24 0;
#X connect 23 0 39 0;
#X connect 24 0 39 0;
#X connect 25 0 26 0;
#X connect 26 0 39 0;
#X connect 27 0 2 0;
#X connect 27 1 9 0;
#X connect 28 0 2 0;
#X connect 28 1 9 0;
#X connect 29 0 43 0;
#X connect 29 0 39 0;
#X connect 30 0 42 0;
#X connect 30 0 39 0;
#X connect 31 0 41 0;
#X connect 31 0 39 0;
#X connect 32 0 40 0;
#X connect 32 0 39 0;
#X connect 33 0 15 0;
#X connect 34 0 29 1;
#X connect 35 0 30 1;
#X connect 36 0 29 0;
#X connect 36 0 30 0;
#X connect 36 0 31 0;
#X connect 36 0 32 0;
#X connect 37 0 31 1;
#X connect 38 0 32 1;
#X connect 39 0 11 0;
#X connect 39 0 11 1;
#X connect 40 0 25 0;
#X connect 40 0 39 0;
#X connect 41 0 22 0;
#X connect 41 0 39 0;
#X connect 42 0 20 0;
#X connect 42 0 39 0;
#X connect 43 0 19 0;
#X connect 43 0 39 0;
#X connect 44 0 3 0;
#X connect 44 1 4 0;
#X restore 85 98 pd atmosphere;
#X msg 430 56 set \$1;
#X obj 430 77 s \$0-clean-r;
#X obj 348 79 s \$0-atmos-r;
#X obj 436 155 s \$0-pitch-r;
#X obj 351 155 s \$0-weath-r;
#X msg 348 56 set \$1;
#X msg 436 133 set \$1;
#X msg 351 133 set \$1;
#X obj 436 110 param.get 3;
#X obj 351 112 param.get 4;
#X obj 348 32 param.get 2;
#X obj 430 10 param.change;
#X obj 430 32 param.get 1;
#X obj 253 641 hsl 400 25 0.01 0.5 1 0 \$0-weath-s \$0-weath-r empty
1 -10 0 14 -204786 -99865 -128992 0 1;
#X obj 250 506 hsl 400 25 0 1 0 0 \$0-clean-s \$0-clean-r empty 10
12 0 14 -204786 -99865 -33289 0 1;
#X obj 251 550 hsl 400 25 0.01 1 1 0 \$0-atmos-s \$0-atmos-r empty
1 -10 0 14 -204786 -99865 -262144 0 1;
#X obj 251 595 hsl 400 25 0.01 1 1 0 \$0-pitch-s \$0-pitch-r empty
1 -10 0 14 -204786 -99865 -262144 0 1;
#X obj 112 860 s clean;
#X obj 171 860 s atmosphere;
#X obj 252 860 s pitch;
#X obj 308 860 s weather;
#X text 630 511 Dry;
#X text 589 555 Atmosphere;
#X text 619 600 Pitch;
#X text 609 646 Weather;
#X obj 111 884 param.set 1 \$0-clean-s;
#X obj 252 883 param.set 3 \$0-pitch-s;
#X obj 316 906 param.set 4 \$0-weath-s;
#X obj 175 906 param.set 2 \$0-atmos-s;
#X connect 0 0 3 0;
#X connect 0 0 11 0;
#X connect 0 0 12 0;
#X connect 0 1 3 1;
#X connect 0 1 11 1;
#X connect 0 1 12 1;
#X connect 2 0 6 0;
#X connect 2 1 6 1;
#X connect 3 0 6 0;
#X connect 3 1 6 1;
#X connect 6 0 9 0;
#X connect 6 1 10 0;
#X connect 7 0 4 0;
#X connect 8 0 5 0;
#X connect 9 0 1 0;
#X connect 10 0 1 1;
#X connect 11 0 6 0;
#X connect 11 1 6 1;
#X connect 12 0 6 0;
#X connect 12 1 6 1;
#X connect 13 0 14 0;
#X connect 18 0 15 0;
#X connect 19 0 16 0;
#X connect 20 0 17 0;
#X connect 21 0 19 0;
#X connect 22 0 20 0;
#X connect 23 0 18 0;
#X connect 25 0 13 0;
#X connect 26 0 33 0;
#X connect 26 0 40 0;
#X connect 27 0 30 0;
#X connect 27 0 38 0;
#X connect 28 0 31 0;
#X connect 28 0 41 0;
#X connect 29 0 32 0;
#X connect 29 0 39 0;
#X coords 0 -1 1 1 500 500 1 200 200;
