#N canvas 402 102 986 699 12;
#X obj 139 536 *~;
#X obj 139 566 outlet~;
#X obj 733 527 *~;
#X obj 733 557 outlet~;
#X obj 134 49 inlet~;
#X obj 729 45 inlet~;
#X obj 240 46 inlet;
#X obj 302 47 inlet;
#X obj 565 53 inlet;
#X obj 631 55 inlet;
#X text 288 587 inlets:0) signal -- 1) amount of time to fade in --
2) amount of time to fade out (ms) note: everytime a value changes
\, the fade starts new;
#X msg 240 188 1 \$1;
#X msg 297 192 0 \$1;
#X msg 561 187 1 \$1;
#X msg 618 192 0 \$1;
#X obj 184 446 vline~;
#X obj 765 348 vline~;
#X obj 241 100 sel 0;
#X obj 319 124 sel 0;
#X obj 583 120 sel 0;
#X obj 649 104 sel 0;
#X connect 0 0 1 0;
#X connect 2 0 3 0;
#X connect 4 0 0 0;
#X connect 5 0 2 0;
#X connect 6 0 17 0;
#X connect 7 0 18 0;
#X connect 8 0 19 0;
#X connect 9 0 20 0;
#X connect 11 0 15 0;
#X connect 12 0 15 0;
#X connect 13 0 16 0;
#X connect 14 0 16 0;
#X connect 15 0 0 1;
#X connect 16 0 2 1;
#X connect 17 1 11 0;
#X connect 18 1 12 0;
#X connect 19 1 13 0;
#X connect 20 1 14 0;
