#N canvas 49 97 744 599 10;
#X obj 152 20 adc~;
#X obj 180 158 dac~;
#N canvas 362 23 773 767 weather 1;
#X obj 28 638 outlet~;
#X obj 206 628 outlet~;
#X obj 28 609 *~;
#X obj 206 604 *~;
#X floatatom 104 559 5 0 0 0 - - -;
#X obj 104 536 r weather;
#X obj 111 581 sel 0.01;
#X msg 142 558 0;
#X obj 26 421 phasor~;
#X obj 4 201 receive pd;
#X obj 4 228 route dsp;
#X obj 4 249 sel 1;
#X obj 5 271 samplerate~;
#X floatatom 5 294 5 0 0 0 - - -;
#X obj 26 374 expr $f1 / $f2;
#X floatatom 112 336 5 0 0 0 - - -;
#X floatatom 26 398 5 0 0 0 - - -;
#X obj 27 31 loadbang;
#X obj 26 453 *~;
#X obj 29 93 soundfiler;
#X msg 27 53 read -resize ./audio/VenusLoop.wav \$0-weatherArrayLeft
\$0-weatherArrayRight;
#X obj 99 133 array define -k \$0-weatherArrayRight;
#A 0 0 0 0 0 0 0 0 0 0 0 0 0 0 0 0 0 0 0 0 0 0 0 0 0 0 0 0 0 0 0 0
0 0 0 0 0 0 0 0 0 0 0 0 0 0 0 0 0 0 0 0 0 0 0 0 0 0 0 0 0 0 0 0 0 0
0 0 0 0 0 0 0 0 0 0 0 0 0 0 0 0 0 0 0 0 0 0 0 0 0 0 0 0 0 0 0 0 0 0
0;
#X obj 85 171 array define -k \$0-weatherArrayLeft;
#A 0 0 0 0 0 0 0 0 0 0 0 0 0 0 0 0 0 0 0 0 0 0 0 0 0 0 0 0 0 0 0 0
0 0 0 0 0 0 0 0 0 0 0 0 0 0 0 0 0 0 0 0 0 0 0 0 0 0 0 0 0 0 0 0 0 0
0 0 0 0 0 0 0 0 0 0 0 0 0 0 0 0 0 0 0 0 0 0 0 0 0 0 0 0 0 0 0 0 0 0
0;
#X obj 26 484 tabread4~ \$0-weatherArrayLeft;
#X obj 207 483 tabread4~ \$0-weatherArrayRight;
#X connect 2 0 0 0;
#X connect 3 0 1 0;
#X connect 4 0 2 1;
#X connect 4 0 3 1;
#X connect 4 0 6 0;
#X connect 5 0 4 0;
#X connect 6 0 7 0;
#X connect 7 0 4 0;
#X connect 8 0 18 0;
#X connect 9 0 10 0;
#X connect 10 0 11 0;
#X connect 11 0 12 0;
#X connect 12 0 13 0;
#X connect 13 0 14 0;
#X connect 14 0 16 0;
#X connect 15 0 14 1;
#X connect 15 0 18 1;
#X connect 16 0 8 0;
#X connect 17 0 20 0;
#X connect 18 0 23 0;
#X connect 18 0 24 0;
#X connect 19 0 15 0;
#X connect 20 0 19 0;
#X connect 23 0 2 0;
#X connect 24 0 3 0;
#X restore 322 58 pd weather;
#N canvas 483 207 309 305 clean 0;
#X obj 35 24 inlet~;
#X obj 163 25 inlet~;
#X obj 35 142 outlet~;
#X obj 164 138 outlet~;
#X obj 35 99 *~;
#X obj 163 98 *~;
#X obj 98 24 r clean;
#X msg 94 67 0;
#X floatatom 111 104 5 0 0 0 - - -;
#X obj 90 47 sel 0.01;
#X connect 0 0 4 0;
#X connect 1 0 5 0;
#X connect 4 0 2 0;
#X connect 5 0 3 0;
#X connect 6 0 9 0;
#X connect 7 0 8 0;
#X connect 8 0 4 1;
#X connect 8 0 5 1;
#X connect 9 0 7 0;
#X connect 9 1 8 0;
#X restore 75 58 pd clean;
#X obj 9 9 loadbang;
#X msg 9 30 \; pd dsp 1;
#X obj 670 13 vu 10 160 empty empty -1 -8 2 8 -102387 -1 0 0;
#X obj 687 13 vu 10 160 empty empty -1 -8 0 10 -102387 -1 0 0;
#N canvas 817 315 256 223 vu 0;
#X obj 17 61 inlet~;
#X obj 156 71 inlet~;
#X obj 19 167 s vuL;
#X obj 155 165 s vuR;
#X obj 156 119 - 100;
#X obj 18 89 env~;
#X obj 18 114 - 100;
#X floatatom 19 140 5 0 0 0 - - -;
#X floatatom 155 141 5 0 0 0 - - -;
#X obj 156 94 env~;
#X obj 2 197 outlet~;
#X obj 193 200 outlet~;
#X connect 0 0 5 0;
#X connect 0 0 10 0;
#X connect 1 0 9 0;
#X connect 1 0 11 0;
#X connect 4 0 8 0;
#X connect 5 0 6 0;
#X connect 6 0 7 0;
#X connect 7 0 2 0;
#X connect 8 0 3 0;
#X connect 9 0 4 0;
#X restore 179 96 pd vu;
#X obj 612 15 r vuL;
#X obj 628 37 r vuR;
#X obj 148 131 hip~ 10;
#X obj 210 130 hip~ 10;
#N canvas 717 67 592 673 pitch 0;
#X obj 134 189 inlet~;
#X obj 448 176 inlet~;
#X obj 152 566 outlet~;
#X obj 457 540 outlet~;
#X obj 280 450 r pitch;
#X obj 159 510 *~;
#X obj 459 509 *~;
#X msg 277 500 0;
#X obj 277 478 sel 0.01;
#X floatatom 276 523 5 0 0 0 - - -;
#X obj 144 412 freeverb~;
#X obj 464 348 freeverb~;
#X msg 194 372 roomsize 0.25;
#X obj 179 138 loadbang;
#X obj 132 244 pitchshifter_;
#X obj 438 225 pitchshifter_;
#X text 16 30 hz to semitone f(1.0595) = 1 semitone up;
#X text 11 47 hz to semitone f/(1.0595) = 1 semitone down;
#X text 12 64 venus to earth at middle c is 323-261 = 62 hz difference
;
#X text 11 80 f(65.680) = transposition in semitones for venus;
#X msg 190 181 transpose 3.7 \, window 100 \, delay 0;
#X connect 0 0 14 0;
#X connect 1 0 15 0;
#X connect 4 0 8 0;
#X connect 5 0 2 0;
#X connect 6 0 3 0;
#X connect 7 0 9 0;
#X connect 8 0 7 0;
#X connect 8 1 9 0;
#X connect 9 0 5 1;
#X connect 9 0 6 1;
#X connect 10 0 5 0;
#X connect 11 0 6 0;
#X connect 12 0 10 0;
#X connect 12 0 11 0;
#X connect 13 0 12 0;
#X connect 13 0 20 0;
#X connect 14 0 10 0;
#X connect 15 0 11 0;
#X connect 20 0 14 1;
#X connect 20 0 15 1;
#X restore 248 66 pd pitch;
#N canvas 727 23 553 523 atmosphere 0;
#X obj 126 506 outlet~;
#X obj 207 503 outlet~;
#X obj 126 485 *~;
#X obj 207 483 *~;
#X msg 176 424 0;
#X floatatom 177 452 5 0 0 0 - - -;
#X obj 176 339 r atmosphere;
#X text 246 375 sig \, level dB \, liveness 0-100 \, crossover freq
Hz \, HF dampening percent;
#X obj 102 448 lop~ 100;
#X obj 201 373 * 2;
#X obj 176 402 sel 0.02;
#X obj 235 449 lop~ 100;
#X obj 62 65 inlet~;
#X obj 256 55 inlet~;
#X obj 78 109 fx.streamstretch~;
#X obj 253 113 fx.streamstretch~;
#N canvas 275 109 880 616 commands 0;
#X obj 48 510 outlet;
#X obj 101 80 tgl 15 0 empty empty empty 17 7 0 10 -262144 -1 -1 1
1;
#X obj 294 290 tgl 15 0 empty empty empty 17 7 0 10 -262144 -1 -1 0
1;
#X msg 262 227 manual-trig bang;
#X text 273 89 Turn on buffering first or you won't hear anything;
#X msg 294 310 auto-trig-switch \$1;
#X text 479 350 Set the probability of auto-triggering a new stream
on every tick that goes by (by default \, once per 500ms).;
#X text 509 405 Make the rate of ticks faster for more density;
#X text 455 300 Or \, turn auto-trigger on to keep generating new streams
continuously;
#X text 405 226 Manually trigger a new stream (polyphonic up to 20
voices);
#X text 371 147 Transposition range in 100ths of a semitone (cents)
;
#X text 371 175 Playback speed from 0-100%;
#X msg 353 454 window-size 4096;
#X text 509 455 Make the FFT analysis window bigger (overlap of 4 is
hard-coded);
#X msg 101 100 buffer-rec-switch \$1;
#X msg 49 33 buffer-rec-switch 0 \, trig-play-switch 0 \, window-size
2048 \, trig-prob 70 \, speed-range 50 90 \, transpo-range 0 0 \;;
#X text 438 39 Internal defaults;
#X obj 622 9 loadbang;
#X obj 613 42 t b b b b b b;
#X msg 323 354 auto-trig-prob 10000;
#X msg 342 404 auto-trig-rate 500000;
#X obj 347 198 sigmund~ notes;
#X obj 294 204 bng 15 250 50 0 empty empty empty 17 7 0 10 -262144
-1 -1;
#X obj 343 171 r~ in0;
#X msg 186 145 transpo-range 65 65.689;
#X msg 207 176 speed-range 98 102;
#X connect 1 0 14 0;
#X connect 2 0 5 0;
#X connect 3 0 0 0;
#X connect 5 0 0 0;
#X connect 12 0 0 0;
#X connect 14 0 0 0;
#X connect 15 0 0 0;
#X connect 17 0 18 0;
#X connect 18 0 1 0;
#X connect 18 1 24 0;
#X connect 18 2 25 0;
#X connect 18 4 19 0;
#X connect 18 5 20 0;
#X connect 19 0 0 0;
#X connect 20 0 0 0;
#X connect 21 0 22 0;
#X connect 22 0 3 0;
#X connect 23 0 21 0;
#X connect 24 0 0 0;
#X connect 25 0 0 0;
#X restore 164 54 pd commands;
#X obj 106 85 s~ in0;
#X obj 300 83 s~ in1;
#N canvas 380 326 880 616 commands 0;
#X obj 48 510 outlet;
#X obj 101 80 tgl 15 0 empty empty empty 17 7 0 10 -262144 -1 -1 1
1;
#X obj 294 290 tgl 15 0 empty empty empty 17 7 0 10 -262144 -1 -1 0
1;
#X msg 262 227 manual-trig bang;
#X text 273 89 Turn on buffering first or you won't hear anything;
#X msg 294 310 auto-trig-switch \$1;
#X text 479 350 Set the probability of auto-triggering a new stream
on every tick that goes by (by default \, once per 500ms).;
#X text 509 405 Make the rate of ticks faster for more density;
#X text 455 300 Or \, turn auto-trigger on to keep generating new streams
continuously;
#X text 405 226 Manually trigger a new stream (polyphonic up to 20
voices);
#X text 371 147 Transposition range in 100ths of a semitone (cents)
;
#X text 371 175 Playback speed from 0-100%;
#X msg 353 454 window-size 4096;
#X text 509 455 Make the FFT analysis window bigger (overlap of 4 is
hard-coded);
#X msg 101 100 buffer-rec-switch \$1;
#X msg 49 33 buffer-rec-switch 0 \, trig-play-switch 0 \, window-size
2048 \, trig-prob 70 \, speed-range 50 90 \, transpo-range 0 0 \;;
#X text 438 39 Internal defaults;
#X obj 622 9 loadbang;
#X obj 613 42 t b b b b b b;
#X msg 323 354 auto-trig-prob 10000;
#X msg 342 404 auto-trig-rate 500000;
#X obj 347 198 sigmund~ notes;
#X obj 294 204 bng 15 250 50 0 empty empty empty 17 7 0 10 -262144
-1 -1;
#X obj 343 171 r~ in0;
#X msg 206 176 speed-range 98 102;
#X msg 187 145 transpo-range 65 65.689;
#X connect 1 0 14 0;
#X connect 2 0 5 0;
#X connect 3 0 0 0;
#X connect 5 0 0 0;
#X connect 12 0 0 0;
#X connect 14 0 0 0;
#X connect 15 0 0 0;
#X connect 17 0 18 0;
#X connect 18 0 1 0;
#X connect 18 1 25 0;
#X connect 18 2 24 0;
#X connect 18 4 19 0;
#X connect 18 5 20 0;
#X connect 19 0 0 0;
#X connect 20 0 0 0;
#X connect 21 0 22 0;
#X connect 22 0 3 0;
#X connect 23 0 21 0;
#X connect 24 0 0 0;
#X connect 25 0 0 0;
#X restore 356 57 pd commands;
#X obj 157 190 nbx 7 14 -1e+37 1e+37 0 0 empty empty empty 0 -8 0 10
-228856 -1 -1 -200 256;
#X text 66 416 shift =>;
#X obj 39 215 else/freq.shift~ 200;
#X obj 117 135 r shiftL;
#X floatatom 119 163 5 0 0 0 - - -;
#X obj 371 195 nbx 7 14 -1e+37 1e+37 0 0 empty empty empty 0 -8 0 10
-228856 -1 -1 -200 256;
#X obj 253 220 else/freq.shift~ 200;
#X floatatom 333 168 5 0 0 0 - - -;
#X obj 331 140 r shiftR;
#X obj 203 142 loadbang;
#X msg 155 163 -200;
#X msg 369 168 -200;
#X obj 67 377 rev2~ 100 90 800 60;
#X connect 2 0 0 0;
#X connect 3 0 1 0;
#X connect 4 0 5 0;
#X connect 5 0 2 1;
#X connect 5 0 3 1;
#X connect 6 0 9 0;
#X connect 8 0 2 0;
#X connect 9 0 10 0;
#X connect 10 0 4 0;
#X connect 10 1 5 0;
#X connect 11 0 3 0;
#X connect 12 0 14 0;
#X connect 12 0 17 0;
#X connect 13 0 15 0;
#X connect 13 0 18 0;
#X connect 14 0 22 0;
#X connect 15 0 26 0;
#X connect 16 0 14 1;
#X connect 19 0 15 1;
#X connect 20 0 22 1;
#X connect 22 0 32 0;
#X connect 23 0 24 0;
#X connect 24 0 20 0;
#X connect 25 0 26 1;
#X connect 26 0 32 0;
#X connect 27 0 25 0;
#X connect 28 0 27 0;
#X connect 29 0 30 0;
#X connect 29 0 31 0;
#X connect 30 0 20 0;
#X connect 31 0 25 0;
#X connect 32 0 8 0;
#X connect 32 1 11 0;
#X restore 145 60 pd atmosphere;
#X msg 498 52 set \$1;
#X obj 498 73 s \$0-clean-r;
#X obj 416 75 s \$0-atmos-r;
#X obj 504 151 s \$0-pitch-r;
#X obj 419 151 s \$0-weath-r;
#X msg 416 52 set \$1;
#X msg 504 129 set \$1;
#X msg 419 129 set \$1;
#X obj 255 356 hsl 400 25 0.01 1 1 0 \$0-weath-s \$0-weath-r empty
1 -10 0 14 -261682 -262144 -128992 0 1;
#X obj 252 221 hsl 400 25 0 1 0 0 \$0-clean-s \$0-clean-r empty 10
12 0 14 -261682 -128992 -33289 0 1;
#X obj 253 265 hsl 400 25 0.01 1 1 0 \$0-atmos-s \$0-atmos-r empty
1 -10 0 14 -261682 -191407 -262144 0 1;
#X obj 253 310 hsl 400 25 0.01 1 1 0 \$0-pitch-s \$0-pitch-r empty
1 -10 0 14 -261682 -228856 -262144 0 1;
#X obj 112 711 s clean;
#X obj 171 711 s atmosphere;
#X obj 252 711 s pitch;
#X obj 308 711 s weather;
#X text 632 226 Dry;
#X text 591 270 Atmosphere;
#X text 621 315 Pitch;
#X text 611 361 Weather;
#X obj 504 106 param.get 3;
#X obj 419 108 param.get 4;
#X obj 416 28 param.get 2;
#X obj 498 6 param.change;
#X obj 498 28 param.get 1;
#X obj 111 735 param.set 1 \$0-clean-s;
#X obj 252 734 param.set 3 \$0-pitch-s;
#X obj 316 757 param.set 4 \$0-weath-s;
#X obj 175 757 param.set 2 \$0-atmos-s;
#X connect 0 0 3 0;
#X connect 0 0 13 0;
#X connect 0 0 14 0;
#X connect 0 1 3 1;
#X connect 0 1 13 1;
#X connect 0 1 14 1;
#X connect 3 0 8 0;
#X connect 3 1 8 1;
#X connect 4 0 5 0;
#X connect 8 0 11 0;
#X connect 8 1 12 0;
#X connect 9 0 6 0;
#X connect 10 0 7 0;
#X connect 11 0 1 0;
#X connect 12 0 1 1;
#X connect 13 0 8 0;
#X connect 13 1 8 1;
#X connect 14 0 8 0;
#X connect 14 1 8 1;
#X connect 15 0 16 0;
#X connect 20 0 17 0;
#X connect 21 0 18 0;
#X connect 22 0 19 0;
#X connect 23 0 30 0;
#X connect 23 0 42 0;
#X connect 24 0 27 0;
#X connect 24 0 40 0;
#X connect 25 0 28 0;
#X connect 25 0 43 0;
#X connect 26 0 29 0;
#X connect 26 0 41 0;
#X connect 35 0 21 0;
#X connect 36 0 22 0;
#X connect 37 0 20 0;
#X connect 39 0 15 0;
#X coords 0 -1 1 1 500 500 1 200 200;
