#N canvas 480 56 917 723 10;
#X obj 136 20 adc~;
#X obj 103 297 dac~;
#N canvas 483 207 309 305 clean 0;
#X obj 35 24 inlet~;
#X obj 163 25 inlet~;
#X obj 35 142 outlet~;
#X obj 164 138 outlet~;
#X obj 35 99 *~;
#X obj 163 98 *~;
#X obj 98 24 r clean;
#X msg 94 67 0;
#X floatatom 111 104 5 0 0 0 - - -;
#X obj 90 47 sel 0.01;
#X connect 0 0 4 0;
#X connect 1 0 5 0;
#X connect 4 0 2 0;
#X connect 5 0 3 0;
#X connect 6 0 9 0;
#X connect 7 0 8 0;
#X connect 8 0 4 1;
#X connect 8 0 5 1;
#X connect 9 0 7 0;
#X connect 9 1 8 0;
#X restore 23 102 pd clean;
#X obj 251 654 hsl 400 25 0.01 0.5 1 0 \$0-weath-s \$0-weath-r empty
1 -10 0 14 -4032 -262144 -262144 0 1;
#X obj 728 143 vu 10 160 empty empty -1 -8 2 8 -102387 -1 0 0;
#X obj 743 143 vu 10 160 empty empty -1 -8 0 10 -102387 -1 0 0;
#X obj 248 519 hsl 400 25 0 1 0 0 \$0-clean-s \$0-clean-r empty 10
12 0 14 -4032 -262144 -33289 0 1;
#X obj 249 563 hsl 400 25 0.01 1 1 0 \$0-atmos-s \$0-atmos-r empty
1 -10 0 14 -4032 -262144 -262144 0 1;
#X obj 249 608 hsl 400 25 0.01 1 1 0 \$0-pitch-s \$0-pitch-r empty
1 -10 0 14 -4032 -262144 -262144 0 1;
#N canvas 817 315 256 223 vu 0;
#X obj 17 61 inlet~;
#X obj 156 71 inlet~;
#X obj 19 167 s vuL;
#X obj 155 165 s vuR;
#X obj 156 119 - 100;
#X obj 18 89 env~;
#X obj 18 114 - 100;
#X floatatom 19 140 5 0 0 0 - - -;
#X floatatom 155 141 5 0 0 0 - - -;
#X obj 156 94 env~;
#X obj 2 197 outlet~;
#X obj 193 200 outlet~;
#X connect 0 0 5 0;
#X connect 0 0 10 0;
#X connect 1 0 9 0;
#X connect 1 0 11 0;
#X connect 4 0 8 0;
#X connect 5 0 6 0;
#X connect 6 0 7 0;
#X connect 7 0 2 0;
#X connect 8 0 3 0;
#X connect 9 0 4 0;
#X restore 109 221 pd vu;
#X obj 722 80 r vuL;
#X obj 738 102 r vuR;
#X obj 26 708 s clean;
#X obj 85 708 s atmosphere;
#X obj 166 708 s pitch;
#X obj 222 708 s weather;
#X obj 89 254 hip~ 10;
#X obj 137 254 hip~ 10;
#N canvas 335 137 592 687 pitch 1;
#X obj 166 64 inlet~;
#X obj 422 84 inlet~;
#X obj 152 566 outlet~;
#X obj 457 540 outlet~;
#X obj 162 126 pp.doppler~;
#A saved empty_slot \; empty_slot \; empty_slot \; empty_slot \; empty_slot
\; empty_slot \; empty_slot \; empty_slot \; empty_slot \; empty_slot
\; empty_slot \; empty_slot \; empty_slot \; empty_slot \; empty_slot
\; empty_slot \; empty_slot \; empty_slot \; empty_slot \; empty_slot
\; empty_slot \;;
#X obj 217 45 osc~ 0.3;
#X obj 216 77 *~ 50;
#X obj 262 63 osc~ 0.2;
#X obj 263 94 *~ 50;
#X obj 423 146 pp.doppler~;
#A saved empty_slot \; empty_slot \; empty_slot \; empty_slot \; empty_slot
\; empty_slot \; empty_slot \; empty_slot \; empty_slot \; empty_slot
\; empty_slot \; empty_slot \; empty_slot \; empty_slot \; empty_slot
\; empty_slot \; empty_slot \; empty_slot \; empty_slot \; empty_slot
\; empty_slot \;;
#X obj 474 100 *~ 50;
#X obj 521 117 *~ 50;
#X obj 475 68 osc~ 0.28;
#X obj 520 86 osc~ 0.32;
#X obj 275 416 r pitch;
#X obj 159 510 *~;
#X obj 459 509 *~;
#X msg 275 461 0;
#X obj 275 439 sel 0.01;
#X floatatom 274 484 5 0 0 0 - - -;
#X obj 284 235 loadbang;
#X obj 266 367 vfreeverb~;
#X floatatom 284 276 5 0 0 0 - - -;
#X msg 284 256 0.25;
#X msg 322 257 1;
#X floatatom 322 277 5 0 0 0 - - -;
#X obj 324 466 * 3;
#X connect 0 0 4 0;
#X connect 1 0 9 0;
#X connect 4 0 15 0;
#X connect 4 0 21 0;
#X connect 5 0 6 0;
#X connect 6 0 4 1;
#X connect 7 0 8 0;
#X connect 8 0 4 2;
#X connect 9 0 16 0;
#X connect 9 0 21 1;
#X connect 10 0 9 1;
#X connect 11 0 9 2;
#X connect 12 0 10 0;
#X connect 13 0 11 0;
#X connect 14 0 18 0;
#X connect 15 0 2 0;
#X connect 16 0 3 0;
#X connect 17 0 19 0;
#X connect 18 0 17 0;
#X connect 18 1 26 0;
#X connect 19 0 15 1;
#X connect 19 0 16 1;
#X connect 20 0 23 0;
#X connect 20 0 24 0;
#X connect 21 0 15 0;
#X connect 21 1 16 0;
#X connect 22 0 21 2;
#X connect 22 0 21 4;
#X connect 23 0 22 0;
#X connect 24 0 25 0;
#X connect 25 0 21 3;
#X connect 25 0 21 5;
#X connect 26 0 19 0;
#X restore 170 104 pd pitch;
#N canvas 642 164 506 661 atmosphere 0;
#X obj 58 16 inlet~;
#X obj 249 19 inlet~;
#X obj 126 506 outlet~;
#X obj 207 503 outlet~;
#X obj 126 485 *~;
#X obj 207 483 *~;
#X text 59 380 shift =>;
#X msg 176 424 0;
#X floatatom 177 452 5 0 0 0 - - -;
#X obj 176 402 sel 0.01;
#X obj 176 377 r atmosphere;
#X floatatom 130 58 5 0 0 0 - - -;
#X obj 87 196 *~;
#X obj 251 163 *~;
#N canvas 45 118 1202 448 messages 0;
#X obj 27 400 outlet;
#X obj 339 9 r \$0-presets;
#X obj 339 32 sel 0 1 2 3 4;
#X msg 26 111 feedback 96 \, crossover-frequency 7000 \, damping 50
\, times-center 33 \, times-slope -62 \, times-curve -67 \, angles-center
90 \, angles-slope -90 \, angles-curve -60 \, gain 6 \, transition-time
1000 \, setblock 64 \, angles 135 71.1042 64.4533 60.2464 57.1102 54.5872
52.4653 50.6276 49.0027 47.5434 46.2171 45 \, times 128 37.1812 28.6265
23.2535 19.266 16.0688 13.3868 11.0692 9.02374 7.18983 5.5254 4 \,
;
#X msg 413 111 feedback 97 \, crossover-frequency 6870.22 \, damping
50 \, times-center 40 \, times-slope -76 \, times-curve -251 \, angles-center
90 \, angles-slope -88 \, angles-curve -60 \, gain 22 \, transition-time
1000 \, setblock 64 \, angles 174.6 71.5241 65.021 60.9076 57.8411
55.3742 53.2994 51.5025 49.9137 48.4869 47.1901 46 \, times 156 17.3425
94 12 9.77861 8.52312 7.48932 6.60959 5.84332 5.16418 4.55405 4 \,
;
#X msg 794 109 feedback 99 \, crossover-frequency 3526.17 \, damping
29.2929 \, times-center 58 \, times-slope -110 \, times-curve -251
\, angles-center 90 \, angles-slope -88 \, angles-curve -60 \, gain
6 \, transition-time 1000 \, setblock 64 \, angles 127.8 71.5241 65.021
60.9076 57.8411 55.3742 53.2994 51.5025 49.9137 48.4869 47.1901 46
\, times 46 25.3115 34 16.6837 26 12.5466 11.0503 9.77704 8.66797 7.685
6.80191 6 \,;
#X msg 442 224 feedback 99 \, crossover-frequency 8608.82 \, damping
50 \, times-center 4 \, times-slope -5 \, times-curve -90 \, angles-center
90 \, angles-slope -90 \, angles-curve 124 \, gain 20 \, transition-time
1000 \, setblock 1 \, angles 172.8 135 135 135 135 134.998 134.973
134.789 133.738 128.885 109.905 45 \, times 13 5.13207 4.56736 4.21842
3.96212 3.75817 3.58813 3.44192 3.31344 3.19867 3.09486 3 \,;
#X msg 42 227 dry/wet 100 \, feedback 100 \, crossover-frequency 6000
\, damping 50 \, times-center 46 \, times-slope 79 \, times-curve 13
\, angles-center 90 \, angles-slope -34 \, angles-curve -135 \, gain
6 \, transition-time 1000 \, setblock 64 \, angles 107 78.1823 76.7713
75.9141 75.2912 74.7994 74.392 74.0435 73.7386 73.4673 73.2227 73 \,
times 13 13.636 16.132 20.9585 28.4238 38.7682 52.1924 68.8701 88.9558
112.589 139.898 171 \,;
#X connect 1 0 2 0;
#X connect 2 0 3 0;
#X connect 2 1 4 0;
#X connect 2 2 5 0;
#X connect 2 3 7 0;
#X connect 2 4 6 0;
#X connect 3 0 0 0;
#X connect 4 0 0 0;
#X connect 5 0 0 0;
#X connect 6 0 0 0;
#X connect 7 0 0 0;
#X restore 252 271 pd messages;
#X obj 139 228 osc~ 1;
#X obj 139 251 *~ 0.1;
#X text 185 229 delay times are slightly modulated;
#X msg 268 320 dry/wet 100;
#X obj 298 191 loadbang;
#X obj 84 309 pp.twisted-delays~ 6 100;
#A saved empty_slot \; empty_slot \; empty_slot \; empty_slot \; empty_slot
\; empty_slot \; empty_slot \; empty_slot \; empty_slot \; empty_slot
\; empty_slot \; empty_slot \; empty_slot \; empty_slot \; empty_slot
\; empty_slot \; empty_slot \; empty_slot \; empty_slot \; empty_slot
\; empty_slot \;;
#X obj 65 277 lop~ 2000;
#X obj 74 231 lop~ 1000;
#X obj 271 65 noise~;
#X obj 271 101 bob~, f 9;
#X obj 172 -19 loadbang;
#X msg 174 15 800;
#X floatatom 326 81 5 0 0 0 - - -;
#X msg 215 16 3;
#X floatatom 296 82 5 0 0 0 - - -;
#X obj 97 47 noise~;
#X obj 104 102 bob~, f 9;
#X floatatom 157 74 5 0 0 0 - - -;
#X connect 0 0 12 0;
#X connect 0 0 22 0;
#X connect 1 0 13 1;
#X connect 1 0 22 0;
#X connect 4 0 2 0;
#X connect 5 0 3 0;
#X connect 7 0 8 0;
#X connect 8 0 4 1;
#X connect 8 0 5 1;
#X connect 9 0 7 0;
#X connect 9 1 8 0;
#X connect 10 0 9 0;
#X connect 11 0 31 1;
#X connect 12 0 22 0;
#X connect 13 0 22 0;
#X connect 14 0 20 3;
#X connect 15 0 16 0;
#X connect 16 0 20 1;
#X connect 18 0 20 3;
#X connect 19 0 18 0;
#X connect 20 2 4 0;
#X connect 20 3 5 0;
#X connect 21 0 20 0;
#X connect 22 0 21 0;
#X connect 23 0 24 0;
#X connect 24 0 13 0;
#X connect 25 0 26 0;
#X connect 25 0 28 0;
#X connect 26 0 29 0;
#X connect 26 0 11 0;
#X connect 27 0 24 2;
#X connect 28 0 27 0;
#X connect 28 0 32 0;
#X connect 29 0 24 1;
#X connect 30 0 31 0;
#X connect 31 0 12 1;
#X connect 32 0 31 2;
#X restore 82 103 pd atmosphere;
#X obj 447 9 param.change;
#X obj 25 732 param.set 1 \$0-clean-s;
#X obj 447 32 param.get 1;
#X msg 447 55 set \$1;
#X obj 447 76 s \$0-clean-r;
#X obj 365 78 s \$0-atmos-r;
#X obj 453 154 s \$0-pitch-r;
#X obj 368 154 s \$0-weath-r;
#X msg 365 55 set \$1;
#X msg 453 132 set \$1;
#X msg 368 132 set \$1;
#X obj 453 109 param.get 3;
#X obj 368 111 param.get 4;
#X obj 365 31 param.get 2;
#X obj 89 754 param.set 2 \$0-atmos-s;
#X obj 166 731 param.set 3 \$0-pitch-s;
#X obj 230 754 param.set 4 \$0-weath-s;
#X text 628 524 Dry;
#X text 587 568 Atmosphere;
#X text 617 613 Pitch;
#X text 607 659 Weather;
#N canvas 545 292 850 719 weather 1;
#X obj 28 638 outlet~;
#X obj 206 628 outlet~;
#X obj 28 609 *~;
#X obj 206 604 *~;
#X floatatom 104 559 5 0 0 0 - - -;
#X obj 104 536 r weather;
#X obj 111 581 sel 0.01;
#X msg 142 558 0;
#X obj 26 421 phasor~;
#X obj 4 201 receive pd;
#X obj 4 228 route dsp;
#X obj 4 249 sel 1;
#X obj 5 271 samplerate~;
#X floatatom 5 294 5 0 0 0 - - -;
#X obj 26 374 expr $f1 / $f2;
#X floatatom 112 336 5 0 0 0 - - -;
#X floatatom 26 398 5 0 0 0 - - -;
#X obj 27 31 loadbang;
#X obj 26 453 *~;
#X obj 29 93 soundfiler;
#X obj 26 484 tabread4~ weatherArrayLeft;
#X msg 27 54 read -resize ./audio/EarthLoop.wav weatherArrayLeft weatherArrayRight
;
#X obj 207 483 tabread4~ weatherArrayRight;
#X obj 85 171 array define -k weatherArrayLeft;
#X obj 99 133 array define -k weatherArrayRight;
#X connect 2 0 0 0;
#X connect 3 0 1 0;
#X connect 4 0 2 1;
#X connect 4 0 3 1;
#X connect 4 0 6 0;
#X connect 5 0 4 0;
#X connect 6 0 7 0;
#X connect 7 0 4 0;
#X connect 8 0 18 0;
#X connect 9 0 10 0;
#X connect 10 0 11 0;
#X connect 11 0 12 0;
#X connect 12 0 13 0;
#X connect 13 0 14 0;
#X connect 14 0 16 0;
#X connect 15 0 14 1;
#X connect 15 0 18 1;
#X connect 16 0 8 0;
#X connect 17 0 21 0;
#X connect 18 0 20 0;
#X connect 18 0 22 0;
#X connect 19 0 15 0;
#X connect 20 0 2 0;
#X connect 21 0 19 0;
#X connect 22 0 3 0;
#X restore 237 104 pd weather;
#X connect 0 0 2 0;
#X connect 0 0 19 0;
#X connect 0 0 18 0;
#X connect 0 1 2 1;
#X connect 0 1 19 1;
#X connect 0 1 18 1;
#X connect 2 0 9 0;
#X connect 2 1 9 1;
#X connect 3 0 15 0;
#X connect 3 0 36 0;
#X connect 6 0 12 0;
#X connect 6 0 21 0;
#X connect 7 0 13 0;
#X connect 7 0 34 0;
#X connect 8 0 14 0;
#X connect 8 0 35 0;
#X connect 9 0 16 0;
#X connect 9 1 17 0;
#X connect 10 0 4 0;
#X connect 11 0 5 0;
#X connect 16 0 1 0;
#X connect 17 0 1 1;
#X connect 18 0 9 0;
#X connect 18 1 9 1;
#X connect 19 0 9 0;
#X connect 19 1 9 1;
#X connect 22 0 23 0;
#X connect 23 0 24 0;
#X connect 28 0 25 0;
#X connect 29 0 26 0;
#X connect 30 0 27 0;
#X connect 31 0 29 0;
#X connect 32 0 30 0;
#X connect 33 0 28 0;
#X connect 41 0 9 0;
#X connect 41 1 9 1;
#X coords 0 0 1 1 500 500 1 200 200;
