#N canvas 393 60 744 599 10;
#X obj 152 20 adc~;
#X obj 126 297 dac~;
#N canvas 780 46 646 756 weather 0;
#X obj 28 638 outlet~;
#X obj 206 628 outlet~;
#X obj 28 609 *~;
#X obj 206 604 *~;
#X floatatom 104 559 5 0 0 0 - - -;
#X obj 104 536 r weather;
#X obj 111 581 sel 0.01;
#X msg 142 558 0;
#X obj 26 421 phasor~;
#X obj 25 252 receive pd;
#X obj 25 279 route dsp;
#X obj 25 300 sel 1;
#X obj 26 322 samplerate~;
#X floatatom 26 344 5 0 0 0 - - -;
#X obj 26 374 expr $f1 / $f2;
#X floatatom 33 113 5 0 0 0 - - -;
#X floatatom 26 398 5 0 0 0 - - -;
#X obj 33 34 loadbang;
#X obj 26 453 *~;
#X obj 33 89 soundfiler;
#X msg 33 55 read -resize ./audio/JupiterLoop.wav jupiterWeatherArrayLeft
jupiterWeatherArrayRight;
#X obj 26 198 array define -k jupiterWeatherArrayLeft;
#X obj 24 224 array define -k jupiterWeatherArrayRight;
#X obj 25 506 tabread4~ jupiterWeatherArrayLeft;
#X obj 233 505 tabread4~ jupiterWeatherArrayRight;
#X connect 2 0 0 0;
#X connect 3 0 1 0;
#X connect 4 0 2 1;
#X connect 4 0 3 1;
#X connect 4 0 6 0;
#X connect 5 0 4 0;
#X connect 6 0 7 0;
#X connect 7 0 4 0;
#X connect 8 0 18 0;
#X connect 9 0 10 0;
#X connect 10 0 11 0;
#X connect 11 0 12 0;
#X connect 12 0 13 0;
#X connect 13 0 14 0;
#X connect 14 0 16 0;
#X connect 15 0 14 1;
#X connect 15 0 18 1;
#X connect 16 0 8 0;
#X connect 17 0 20 0;
#X connect 18 0 23 0;
#X connect 18 0 24 0;
#X connect 19 0 15 0;
#X connect 20 0 19 0;
#X connect 23 0 2 0;
#X connect 24 0 3 0;
#X restore 261 96 pd weather;
#N canvas 483 207 309 305 clean 0;
#X obj 35 24 inlet~;
#X obj 163 25 inlet~;
#X obj 35 142 outlet~;
#X obj 164 138 outlet~;
#X obj 35 99 *~;
#X obj 163 98 *~;
#X obj 98 24 r clean;
#X msg 94 67 0;
#X floatatom 111 104 5 0 0 0 - - -;
#X obj 90 47 sel 0.01;
#X connect 0 0 4 0;
#X connect 1 0 5 0;
#X connect 4 0 2 0;
#X connect 5 0 3 0;
#X connect 6 0 9 0;
#X connect 7 0 8 0;
#X connect 8 0 4 1;
#X connect 8 0 5 1;
#X connect 9 0 7 0;
#X connect 9 1 8 0;
#X restore 15 96 pd clean;
#X obj 39 347 vu 10 160 empty empty -1 -8 2 8 -102387 -1 0 0;
#X obj 54 347 vu 10 160 empty empty -1 -8 0 10 -102387 -1 0 0;
#N canvas 817 315 256 223 vu 0;
#X obj 17 61 inlet~;
#X obj 156 71 inlet~;
#X obj 19 167 s vuL;
#X obj 155 165 s vuR;
#X obj 156 119 - 100;
#X obj 18 89 env~;
#X obj 18 114 - 100;
#X floatatom 19 140 5 0 0 0 - - -;
#X floatatom 155 141 5 0 0 0 - - -;
#X obj 156 94 env~;
#X obj 2 197 outlet~;
#X obj 193 200 outlet~;
#X connect 0 0 5 0;
#X connect 0 0 10 0;
#X connect 1 0 9 0;
#X connect 1 0 11 0;
#X connect 4 0 8 0;
#X connect 5 0 6 0;
#X connect 6 0 7 0;
#X connect 7 0 2 0;
#X connect 8 0 3 0;
#X connect 9 0 4 0;
#X restore 125 221 pd vu;
#X obj 37 240 r vuL;
#X obj 53 262 r vuR;
#X obj 94 256 hip~ 10;
#X obj 146 255 hip~ 10;
#N canvas 666 23 592 673 pitch 0;
#X obj 134 189 inlet~;
#X obj 448 176 inlet~;
#X obj 152 566 outlet~;
#X obj 457 540 outlet~;
#X obj 280 450 r pitch;
#X obj 159 510 *~;
#X obj 459 509 *~;
#X msg 277 500 0;
#X obj 277 478 sel 0.01;
#X floatatom 276 523 5 0 0 0 - - -;
#X obj 179 138 loadbang;
#X obj 132 244 pitchshifter_;
#X obj 438 225 pitchshifter_;
#X msg 190 181 transpose 15.3 \, window 100 \, delay 0;
#X msg 295 298 0.25;
#X obj 300 377 vfreeverb~;
#X floatatom 296 321 5 0 0 0 - - -;
#X msg 339 298 1500;
#X msg 377 298 0.5;
#X floatatom 381 325 5 0 0 0 - - -;
#X floatatom 339 322 5 0 0 0 - - -;
#X connect 0 0 11 0;
#X connect 1 0 12 0;
#X connect 4 0 8 0;
#X connect 5 0 2 0;
#X connect 6 0 3 0;
#X connect 7 0 9 0;
#X connect 8 0 7 0;
#X connect 8 1 9 0;
#X connect 9 0 5 1;
#X connect 9 0 6 1;
#X connect 10 0 13 0;
#X connect 10 0 14 0;
#X connect 11 0 15 0;
#X connect 12 0 15 1;
#X connect 13 0 12 1;
#X connect 13 0 11 1;
#X connect 14 0 16 0;
#X connect 15 0 5 0;
#X connect 15 1 6 0;
#X connect 16 0 15 2;
#X connect 17 0 20 0;
#X connect 18 0 19 0;
#X connect 19 0 15 5;
#X connect 19 0 15 4;
#X connect 20 0 15 3;
#X restore 188 104 pd pitch;
#N canvas 745 124 695 622 atmosphere 1;
#X obj 126 506 outlet~;
#X obj 207 503 outlet~;
#X obj 126 485 *~;
#X obj 207 483 *~;
#X msg 158 435 0;
#X floatatom 159 463 5 0 0 0 - - -;
#X obj 158 388 r atmosphere;
#X obj 65 56 inlet~;
#X obj 371 49 inlet~;
#X obj 158 414 sel 0.01;
#X obj 185 156 vfreeverb~;
#X obj 197 29 loadbang;
#X msg 163 65 10;
#X msg 194 65 400;
#X msg 264 65 1;
#X msg 228 64 0;
#X floatatom 162 87 5 0 0 0 - - -;
#X floatatom 194 90 5 0 0 0 - - -;
#X floatatom 227 86 5 0 0 0 - - -;
#X floatatom 263 88 5 0 0 0 - - -;
#X obj 426 317 osc~ 0.1;
#X obj 21 328 osc~ 0.15;
#X obj 4 371 *~;
#X obj -42 329 osc~ 0.12;
#X obj -51 373 *~;
#X obj 502 316 osc~ 0.13;
#X obj 412 341 *~;
#X obj 488 342 *~;
#X obj 100 324 osc~ 0.17;
#X obj 85 350 *~;
#X obj 173 324 osc~ 0.2;
#X obj 155 354 *~;
#X obj 258 321 osc~ 0.18;
#X obj 242 346 *~;
#X obj 343 321 osc~ 0.21;
#X obj 320 346 *~;
#X obj -49 303 bp~ 80 60;
#X obj 85 303 bp~ 60 60;
#X obj 411 297 bp~ 160 60;
#X obj 482 295 bp~ 81 60;
#X obj 16 303 bp~ 161 60;
#X obj 321 301 bp~ 120 60;
#X obj 243 302 bp~ 61 60;
#X obj 161 301 bp~ 121 60;
#X connect 2 0 0 0;
#X connect 3 0 1 0;
#X connect 4 0 5 0;
#X connect 5 0 2 1;
#X connect 5 0 3 1;
#X connect 6 0 9 0;
#X connect 7 0 10 0;
#X connect 8 0 10 1;
#X connect 9 0 4 0;
#X connect 9 1 5 0;
#X connect 10 0 36 0;
#X connect 10 0 37 0;
#X connect 10 0 40 0;
#X connect 10 0 43 0;
#X connect 10 1 38 0;
#X connect 10 1 39 0;
#X connect 10 1 41 0;
#X connect 10 1 42 0;
#X connect 11 0 12 0;
#X connect 11 0 13 0;
#X connect 11 0 15 0;
#X connect 11 0 14 0;
#X connect 12 0 16 0;
#X connect 13 0 17 0;
#X connect 14 0 19 0;
#X connect 15 0 18 0;
#X connect 16 0 10 2;
#X connect 17 0 10 3;
#X connect 18 0 10 4;
#X connect 19 0 10 5;
#X connect 20 0 26 1;
#X connect 21 0 22 1;
#X connect 22 0 2 0;
#X connect 23 0 24 1;
#X connect 24 0 2 0;
#X connect 25 0 27 1;
#X connect 26 0 3 0;
#X connect 27 0 3 0;
#X connect 28 0 29 1;
#X connect 29 0 2 0;
#X connect 30 0 31 1;
#X connect 31 0 2 0;
#X connect 32 0 33 1;
#X connect 33 0 3 0;
#X connect 34 0 35 1;
#X connect 35 0 3 0;
#X connect 36 0 24 0;
#X connect 37 0 29 0;
#X connect 38 0 26 0;
#X connect 39 0 27 0;
#X connect 40 0 22 0;
#X connect 41 0 35 0;
#X connect 42 0 33 0;
#X connect 43 0 31 0;
#X restore 85 98 pd atmosphere;
#X msg 460 57 set \$1;
#X obj 460 78 s \$0-clean-r;
#X obj 378 80 s \$0-atmos-r;
#X obj 466 156 s \$0-pitch-r;
#X obj 381 156 s \$0-weath-r;
#X msg 378 57 set \$1;
#X msg 466 134 set \$1;
#X msg 381 134 set \$1;
#X obj 466 111 param.get 3;
#X obj 381 113 param.get 4;
#X obj 378 33 param.get 2;
#X obj 460 11 param.change;
#X obj 460 33 param.get 1;
#X obj 255 645 hsl 400 25 0.01 0.5 1 0 \$0-weath-s \$0-weath-r empty
1 -10 0 14 -203904 -204800 -128992 0 1;
#X obj 252 510 hsl 400 25 0 1 0 0 \$0-clean-s \$0-clean-r empty 10
12 0 14 -203904 -204800 -33289 0 1;
#X obj 253 554 hsl 400 25 0.01 1 1 0 \$0-atmos-s \$0-atmos-r empty
1 -10 0 14 -203904 -204800 -262144 0 1;
#X obj 253 599 hsl 400 25 0.01 1 1 0 \$0-pitch-s \$0-pitch-r empty
1 -10 0 14 -203904 -204800 -262144 0 1;
#X obj 112 860 s clean;
#X obj 171 860 s atmosphere;
#X obj 252 860 s pitch;
#X obj 308 860 s weather;
#X text 632 515 Dry;
#X text 591 559 Atmosphere;
#X text 621 604 Pitch;
#X text 611 650 Weather;
#X obj 111 884 param.set 1 \$0-clean-s;
#X obj 252 883 param.set 3 \$0-pitch-s;
#X obj 316 906 param.set 4 \$0-weath-s;
#X obj 175 906 param.set 2 \$0-atmos-s;
#X connect 0 0 3 0;
#X connect 0 0 11 0;
#X connect 0 0 12 0;
#X connect 0 1 3 1;
#X connect 0 1 11 1;
#X connect 0 1 12 1;
#X connect 2 0 6 0;
#X connect 2 1 6 1;
#X connect 3 0 6 0;
#X connect 3 1 6 1;
#X connect 6 0 9 0;
#X connect 6 1 10 0;
#X connect 7 0 4 0;
#X connect 8 0 5 0;
#X connect 9 0 1 0;
#X connect 10 0 1 1;
#X connect 11 0 6 0;
#X connect 11 1 6 1;
#X connect 12 0 6 0;
#X connect 12 1 6 1;
#X connect 13 0 14 0;
#X connect 18 0 15 0;
#X connect 19 0 16 0;
#X connect 20 0 17 0;
#X connect 21 0 19 0;
#X connect 22 0 20 0;
#X connect 23 0 18 0;
#X connect 25 0 13 0;
#X connect 26 0 33 0;
#X connect 26 0 40 0;
#X connect 27 0 30 0;
#X connect 27 0 38 0;
#X connect 28 0 31 0;
#X connect 28 0 41 0;
#X connect 29 0 32 0;
#X connect 29 0 39 0;
#X coords 0 -1 1 1 500 500 1 200 200;
